<svg width="277" height="70" viewBox="0 0 277 70" fill="none" xmlns="http://www.w3.org/2000/svg">
<path d="M83.5014 11.0795H84.1984V16.7494H83.5014C83.2493 15.7542 82.9444 15.1313 82.5869 14.8792C82.2293 14.6271 81.4466 14.5019 80.2388 14.5019H74.4503V22.8576C74.4503 23.4409 74.5788 23.8529 74.8375 24.0902C75.0962 24.3274 75.5361 24.4477 76.1606 24.4477H80.2388C81.6971 24.4477 82.7055 24.3686 83.2625 24.2088C83.8194 24.049 84.2907 23.754 84.6746 23.324C85.0585 22.8939 85.4705 22.1936 85.9088 21.2247H86.6058L85.5314 25.5814H68.7227V24.9058C69.7706 24.9058 70.4726 24.6372 70.8318 24.1C71.1893 23.5629 71.369 22.6105 71.369 21.2428V6.64701C71.369 5.22664 71.1828 4.25117 70.812 3.72059C70.4413 3.19001 69.7443 2.92473 68.7227 2.92473V2.24915H85.5314V6.14774H85.0931C84.8542 5.03385 84.5131 4.29401 84.0682 3.92986C83.6233 3.5657 82.6594 3.3828 81.1731 3.3828H74.4486V13.3682H80.9737C81.8619 13.3682 82.4682 13.2084 82.7945 12.8904C83.1191 12.5723 83.3547 11.9693 83.5014 11.0795Z" fill="#111110"/>
<path d="M93.0768 10.7615V13.6468C94.7609 11.7238 96.4976 10.7615 98.2887 10.7615C99.6811 10.7615 100.841 11.2361 101.77 12.1868C102.698 13.136 103.163 14.3882 103.163 15.9421V22.4557C103.163 23.4526 103.329 24.11 103.66 24.428C103.992 24.7477 104.642 24.9059 105.61 24.9059V25.5815H97.9114V24.9059C98.8654 24.9059 99.5196 24.7823 99.8705 24.5368C100.222 24.2913 100.398 23.8167 100.398 23.1115V15.5598C100.398 14.5497 100.096 13.7473 99.4932 13.1491C98.8901 12.551 98.1173 12.2528 97.1765 12.2528C95.8237 12.2528 94.4577 13.1953 93.0785 15.077V22.1327C93.0785 23.329 93.2334 24.0902 93.5415 24.4148C93.8513 24.7411 94.4989 24.9026 95.4859 24.9026V25.5782H87.8864V24.9026C88.9871 24.9026 89.6627 24.7263 89.9148 24.3737C90.1669 24.021 90.2921 23.273 90.2921 22.1294V13.9878C90.2921 13.1228 90.1389 12.5543 89.8341 12.2824C89.5292 12.0105 88.88 11.8738 87.8848 11.8738V11.1982L92.3799 10.7599H93.0768V10.7615Z" fill="#111110"/>
<path d="M111.808 11.1998V11.8753C110.866 11.9561 110.394 12.3581 110.394 13.0799C110.394 13.4275 110.5 13.8625 110.712 14.3849L113.926 22.0799L116.753 14.7787C117.045 14.0438 117.191 13.4901 117.191 13.1161C117.191 12.3812 116.57 11.9676 115.328 11.8737V11.1981H120.619V11.8737C119.755 11.9544 119.154 12.1275 118.816 12.396C118.477 12.6646 118.155 13.187 117.85 13.9631L113.192 25.8994H112.51L107.891 14.581C107.427 13.4457 107.025 12.7206 106.687 12.4059C106.349 12.0912 105.735 11.9149 104.845 11.8753V11.1998H111.806H111.808Z" fill="#111110"/>
<path d="M126.142 10.7615H126.839V22.9137C126.839 23.7112 127.011 24.2418 127.357 24.5071C127.701 24.7724 128.332 24.9059 129.247 24.9059V25.5814H121.349V24.9059C122.503 24.9059 123.246 24.7757 123.577 24.517C123.908 24.2583 124.075 23.7228 124.075 22.9104V14.0307C124.075 13.1524 123.921 12.5741 123.616 12.2939C123.312 12.0155 122.555 11.8754 121.349 11.8754V11.1998L126.144 10.7615H126.142ZM125.506 3.30212C125.997 3.30212 126.411 3.47184 126.75 3.80963C127.09 4.14742 127.258 4.56266 127.258 5.05369C127.258 5.54472 127.085 5.9649 126.741 6.31752C126.396 6.66849 125.984 6.8448 125.508 6.8448C125.032 6.8448 124.594 6.66849 124.234 6.31752C123.877 5.96655 123.697 5.54472 123.697 5.05369C123.697 4.56266 123.873 4.14907 124.224 3.80963C124.575 3.47184 125.004 3.30212 125.508 3.30212H125.506Z" fill="#111110"/>
<path d="M135.518 10.7615V13.884C136.844 12.7305 137.876 11.9215 138.61 11.4568C139.347 10.9922 139.96 10.7598 140.451 10.7598C141.365 10.7598 142.247 11.1372 143.097 11.8935L142.003 14.459C140.464 13.6104 139.324 13.1853 138.581 13.1853C137.759 13.1853 136.737 13.7686 135.518 14.9352V22.8692C135.518 23.6667 135.684 24.2055 136.015 24.484C136.346 24.7625 136.982 24.9025 137.925 24.9025V25.5781H130.306V24.9025C131.314 24.9025 131.973 24.7427 132.285 24.423C132.596 24.1034 132.753 23.3388 132.753 22.1277V14.2465C132.753 13.2496 132.583 12.6037 132.245 12.312C131.907 12.0204 131.082 11.8721 129.769 11.8721V11.1965L134.822 10.7582H135.519L135.518 10.7615Z" fill="#111110"/>
<path d="M160.13 18.4202C160.13 20.5953 159.377 22.4095 157.873 23.8611C156.367 25.3128 154.488 26.0395 152.233 26.0395C149.977 26.0395 148.098 25.3128 146.592 23.8611C145.086 22.4095 144.335 20.5953 144.335 18.4202C144.335 16.2452 145.085 14.3915 146.583 12.9398C148.08 11.4881 149.964 10.7615 152.233 10.7615C154.502 10.7615 156.383 11.4881 157.883 12.9398C159.381 14.3915 160.13 16.2188 160.13 18.4202ZM157.126 18.4301C157.126 16.3721 156.688 14.7111 155.813 13.449C154.938 12.1868 153.744 11.5557 152.233 11.5557C150.722 11.5557 149.527 12.1736 148.652 13.4078C147.777 14.6436 147.339 16.3161 147.339 18.4285C147.339 20.5409 147.774 22.1541 148.642 23.3899C149.511 24.6257 150.707 25.242 152.233 25.242C153.758 25.242 154.955 24.6175 155.823 23.3685C156.691 22.1195 157.126 20.4734 157.126 18.4285V18.4301Z" fill="#111110"/>
<path d="M166.542 10.7615V13.6468C168.226 11.7238 169.962 10.7615 171.754 10.7615C173.146 10.7615 174.306 11.2361 175.235 12.1868C176.163 13.136 176.628 14.3882 176.628 15.9421V22.4557C176.628 23.4526 176.794 24.11 177.125 24.428C177.456 24.7477 178.107 24.9059 179.075 24.9059V25.5815H171.376V24.9059C172.33 24.9059 172.984 24.7823 173.335 24.5368C173.686 24.2913 173.863 23.8167 173.863 23.1115V15.5598C173.863 14.5497 173.561 13.7473 172.958 13.1491C172.355 12.551 171.582 12.2528 170.641 12.2528C169.288 12.2528 167.923 13.1953 166.543 15.077V22.1327C166.543 23.329 166.698 24.0902 167.006 24.4148C167.316 24.7411 167.964 24.9026 168.951 24.9026V25.5782H161.351V24.9026C162.452 24.9026 163.128 24.7263 163.38 24.3737C163.632 24.021 163.757 23.273 163.757 22.1294V13.9878C163.757 13.1228 163.604 12.5543 163.299 12.2824C162.994 12.0105 162.345 11.8738 161.35 11.8738V11.1982L165.845 10.7599H166.542V10.7615Z" fill="#111110"/>
<path d="M185.72 10.7615V13.7653H185.799C186.396 12.8508 187.162 12.1209 188.096 11.5771C189.03 11.0334 189.976 10.7615 190.93 10.7615C191.978 10.7615 192.909 11.0498 193.725 11.6265C194.541 12.2033 195.121 12.9958 195.465 14.0043C197.004 11.8424 198.78 10.7615 200.795 10.7615C202.201 10.7615 203.368 11.1948 204.297 12.0632C205.225 12.9299 205.689 14.1196 205.689 15.6289V22.8791C205.689 23.6601 205.861 24.1874 206.202 24.4576C206.544 24.7295 207.176 24.8646 208.097 24.8646V25.5814H200.458V24.8646C201.506 24.8646 202.175 24.6966 202.466 24.3588C202.758 24.021 202.905 23.2696 202.905 22.1046V15.273C202.905 14.347 202.626 13.6187 202.069 13.0881C201.512 12.5575 200.749 12.2939 199.782 12.2939C198.269 12.2939 196.91 13.2216 195.704 15.0786V22.8016C195.704 23.609 195.877 24.1544 196.221 24.4395C196.566 24.7246 197.197 24.8663 198.111 24.8663V25.583H190.532V24.8663C191.619 24.8663 192.291 24.6949 192.55 24.3505C192.809 24.0061 192.937 23.2581 192.937 22.1063V15.4329C192.937 14.4788 192.652 13.7176 192.082 13.1491C191.512 12.579 190.775 12.2955 189.874 12.2955C189.091 12.2955 188.325 12.5476 187.577 13.0519C186.827 13.5561 186.208 14.2317 185.717 15.0802V22.9219C185.717 23.6634 185.896 24.1792 186.254 24.4708C186.612 24.7625 187.249 24.9075 188.164 24.9075V25.583H180.505V24.8663C181.566 24.8663 182.238 24.6998 182.523 24.3686C182.809 24.0375 182.952 23.4278 182.952 22.538V13.9845C182.952 13.2413 182.795 12.7042 182.484 12.373C182.172 12.0418 181.658 11.8754 180.942 11.8754H180.047V11.1998L185.02 10.7615H185.717H185.72Z" fill="#111110"/>
<path d="M222.523 21.8822V22.9368C221.648 24.0507 220.755 24.8466 219.847 25.3244C218.939 25.8023 217.848 26.0412 216.574 26.0412C214.32 26.0412 212.46 25.3343 210.995 23.9222C209.53 22.51 208.797 20.7156 208.797 18.5406C208.797 16.3656 209.496 14.5085 210.896 13.0107C212.295 11.5129 214.009 10.7632 216.039 10.7632C217.71 10.7632 219.168 11.3267 220.415 12.4538C221.661 13.5808 222.285 14.9271 222.285 16.4924V16.7907H211.682V16.9901C211.682 18.5818 211.924 19.9643 212.409 21.1375C212.893 22.3107 213.598 23.2301 214.528 23.8925C215.455 24.5566 216.424 24.8878 217.433 24.8878C218.374 24.8878 219.179 24.6917 219.85 24.3012C220.519 23.9106 221.412 23.1049 222.526 21.8839L222.523 21.8822ZM211.68 16.0937H219.539V15.8152C219.539 14.5283 219.171 13.5083 218.435 12.752C217.698 11.9957 216.78 11.6184 215.68 11.6184C214.513 11.6184 213.574 12.0155 212.865 12.8113C212.155 13.6072 211.761 14.7013 211.682 16.0937H211.68Z" fill="#111110"/>
<path d="M228.833 10.7615V13.6468C230.517 11.7238 232.254 10.7615 234.045 10.7615C235.437 10.7615 236.597 11.2361 237.527 12.1868C238.454 13.136 238.919 14.3882 238.919 15.9421V22.4557C238.919 23.4526 239.086 24.11 239.417 24.428C239.748 24.7477 240.399 24.9059 241.366 24.9059V25.5815H233.668V24.9059C234.622 24.9059 235.276 24.7823 235.627 24.5368C235.978 24.2913 236.154 23.8167 236.154 23.1115V15.5598C236.154 14.5497 235.853 13.7473 235.25 13.1491C234.646 12.551 233.874 12.2528 232.933 12.2528C231.58 12.2528 230.214 13.1953 228.835 15.077V22.1327C228.835 23.329 228.99 24.0902 229.298 24.4148C229.608 24.7411 230.255 24.9026 231.242 24.9026V25.5782H223.643V24.9026C224.743 24.9026 225.419 24.7263 225.671 24.3737C225.923 24.021 226.048 23.273 226.048 22.1294V13.9878C226.048 13.1228 225.895 12.5543 225.59 12.2824C225.286 12.0105 224.636 11.8738 223.641 11.8738V11.1982L228.136 10.7599H228.833V10.7615Z" fill="#111110"/>
<path d="M245.561 6.26636H246.258V11.1206H251.271V12.1752H246.258V21.4653C246.258 22.4341 246.484 23.1789 246.934 23.7029C247.385 24.2269 248.028 24.4889 248.863 24.4889C249.846 24.4889 250.74 24.0242 251.549 23.0965L252.007 23.6337C250.747 25.2386 249.295 26.0411 247.651 26.0411C246.418 26.0411 245.416 25.6489 244.647 24.8679C243.877 24.0852 243.493 23.0768 243.493 21.8443V12.1769H240.768V11.4799C242.757 10.4846 244.355 8.74788 245.563 6.26801L245.561 6.26636Z" fill="#111110"/>
<path d="M257.541 26.0395C256.414 26.0395 255.445 25.6654 254.636 24.9157C253.827 24.166 253.423 23.2614 253.423 22.2002C253.423 21.139 253.771 20.3597 254.468 19.7039C255.165 19.048 256.58 18.4202 258.714 17.8238C260.053 17.453 260.955 17.135 261.419 16.8697V15.7954C261.419 14.7474 261.128 13.9021 260.544 13.2595C259.961 12.6168 259.178 12.2939 258.196 12.2939C257.308 12.2939 256.519 12.5724 255.829 13.1293C255.138 13.6862 254.655 14.4426 254.377 15.3966L253.64 15.1972C253.932 13.8576 254.565 12.7833 255.54 11.9742C256.516 11.1652 257.659 10.7615 258.973 10.7615C260.525 10.7615 261.78 11.2294 262.743 12.1637C263.703 13.098 264.184 14.3948 264.184 16.0524V22.2397C264.184 23.1147 264.24 23.7095 264.354 24.021C264.466 24.3324 264.682 24.4889 265 24.4889C265.213 24.4889 265.384 24.4 265.517 24.2204C265.649 24.0407 265.802 23.6667 265.975 23.0966H266.672C266.607 23.9979 266.325 24.7147 265.827 25.2453C265.33 25.7758 264.677 26.0411 263.868 26.0411C262.687 26.0411 261.873 25.359 261.421 23.9913C260.704 24.774 260.068 25.3112 259.511 25.6028C258.954 25.8945 258.299 26.0411 257.542 26.0411L257.541 26.0395ZM261.419 22.6583V17.7644C261.007 17.9375 260.411 18.1566 259.628 18.4202C258.183 18.9113 257.257 19.399 256.853 19.8818C256.448 20.3662 256.247 21.0188 256.247 21.841C256.247 22.5578 256.463 23.1773 256.893 23.7013C257.325 24.2253 257.839 24.4873 258.435 24.4873C258.979 24.4873 259.549 24.311 260.146 23.96C260.742 23.609 261.167 23.174 261.419 22.6566V22.6583Z" fill="#111110"/>
<path d="M275.09 24.9058H275.471V25.5814H267.415V24.9058H268.151C268.894 24.9058 269.397 24.7131 269.664 24.3291C269.929 23.9452 270.061 23.2268 270.061 22.1788V3.14392C270.061 2.40078 269.914 1.88668 269.623 1.60162C269.331 1.31656 268.827 1.1732 268.11 1.1732H267.176V0.497623L272.149 0H272.824V22.8758C272.824 23.6585 272.984 24.1924 273.305 24.4791C273.627 24.7641 274.222 24.9075 275.09 24.9075V24.9058Z" fill="#111110"/>
<path d="M75.1275 28.984V29.4009C74.5129 29.4009 74.0878 29.569 73.8505 29.9051C73.6132 30.2412 73.4946 30.8394 73.4946 31.6995V40.6847C73.4946 41.5449 73.6132 42.1413 73.8505 42.4742C74.0878 42.8054 74.5129 42.9718 75.1275 42.9718V43.3887H69.9453V42.9718C70.5764 42.9718 71.0048 42.8087 71.2355 42.4808C71.4645 42.1529 71.5799 41.5547 71.5799 40.6864V31.7012C71.5799 30.8163 71.4678 30.2116 71.2421 29.8886C71.0164 29.5657 70.5846 29.4025 69.947 29.4025V28.9857H75.1292L75.1275 28.984Z" fill="#111110"/>
<path d="M80.7894 34.2404V36.0216C81.8291 34.8352 82.9018 34.2404 84.0074 34.2404C84.8676 34.2404 85.5827 34.5337 86.1561 35.1203C86.7295 35.7069 87.0162 36.4797 87.0162 37.4387V41.4608C87.0162 42.0754 87.1184 42.4824 87.3227 42.6785C87.527 42.8746 87.9291 42.9735 88.5256 42.9735V43.3903H83.7718V42.9735C84.3617 42.9735 84.7637 42.8977 84.9812 42.7461C85.1988 42.5945 85.3075 42.3012 85.3075 41.8662V37.2047C85.3075 36.5818 85.1213 36.0858 84.7489 35.7167C84.3765 35.3476 83.8987 35.1631 83.3187 35.1631C82.4833 35.1631 81.6396 35.7448 80.7894 36.9064V41.2631C80.7894 42.0013 80.8849 42.4709 81.0761 42.6719C81.2672 42.873 81.6676 42.9735 82.2756 42.9735V43.3903H77.5845V42.9735C78.2633 42.9735 78.6819 42.8647 78.8368 42.6472C78.9917 42.4297 79.0707 41.9683 79.0707 41.2614V36.2358C79.0707 35.7019 78.9768 35.3509 78.789 35.1829C78.6011 35.0148 78.1991 34.9308 77.5861 34.9308V34.5139L80.3626 34.2437H80.7927L80.7894 34.2404Z" fill="#111110"/>
<path d="M93.3152 34.2404V36.0216C94.355 34.8352 95.4277 34.2404 96.5333 34.2404C97.3934 34.2404 98.1086 34.5337 98.682 35.1203C99.2554 35.7069 99.5421 36.4797 99.5421 37.4387V41.4608C99.5421 42.0754 99.6443 42.4824 99.8486 42.6785C100.053 42.8746 100.455 42.9735 101.051 42.9735V43.3903H96.2977V42.9735C96.8876 42.9735 97.2896 42.8977 97.5071 42.7461C97.7246 42.5945 97.8334 42.3012 97.8334 41.8662V37.2047C97.8334 36.5818 97.6472 36.0858 97.2748 35.7167C96.9024 35.3476 96.4246 35.1631 95.8445 35.1631C95.0091 35.1631 94.1655 35.7448 93.3152 36.9064V41.2631C93.3152 42.0013 93.4108 42.4709 93.6019 42.6719C93.7931 42.873 94.1935 42.9735 94.8015 42.9735V43.3903H90.1104V42.9735C90.7892 42.9735 91.2078 42.8647 91.3626 42.6472C91.5175 42.4297 91.5966 41.9683 91.5966 41.2614V36.2358C91.5966 35.7019 91.5027 35.3509 91.3149 35.1829C91.127 35.0148 90.725 34.9308 90.112 34.9308V34.5139L92.8885 34.2437H93.3185L93.3152 34.2404Z" fill="#111110"/>
<path d="M112.7 38.9694C112.7 40.3123 112.235 41.4311 111.306 42.3291C110.376 43.2255 109.216 43.6737 107.824 43.6737C106.432 43.6737 105.272 43.2255 104.342 42.3291C103.413 41.4328 102.948 40.3123 102.948 38.9694C102.948 37.6264 103.411 36.4829 104.336 35.5865C105.26 34.6901 106.423 34.2419 107.824 34.2419C109.225 34.2419 110.386 34.6901 111.312 35.5865C112.237 36.4829 112.7 37.6116 112.7 38.9694ZM110.846 38.9759C110.846 37.7055 110.576 36.6806 110.035 35.9012C109.495 35.1218 108.758 34.733 107.824 34.733C106.89 34.733 106.153 35.1136 105.613 35.8765C105.072 36.6394 104.802 37.6726 104.802 38.9759C104.802 40.2793 105.071 41.2762 105.606 42.0391C106.142 42.802 106.881 43.1827 107.822 43.1827C108.763 43.1827 109.503 42.7971 110.039 42.0259C110.574 41.2548 110.843 40.2381 110.843 38.9759H110.846Z" fill="#111110"/>
<path d="M118.288 34.5106V34.9274C117.706 34.9769 117.416 35.2257 117.416 35.6706C117.416 35.8848 117.482 36.1534 117.612 36.4763L119.596 41.2268L121.343 36.7186C121.522 36.2654 121.613 35.9227 121.613 35.692C121.613 35.2389 121.229 34.9835 120.463 34.9258V34.5089H123.73V34.9258C123.196 34.9752 122.826 35.0823 122.616 35.2488C122.407 35.4135 122.208 35.7365 122.02 36.216L119.144 43.5848H118.724L115.872 36.5966C115.585 35.8963 115.336 35.4481 115.127 35.2537C114.918 35.0593 114.539 34.9505 113.99 34.9258V34.5089H118.289L118.288 34.5106Z" fill="#111110"/>
<path d="M128.369 43.6721C127.674 43.6721 127.076 43.4414 126.576 42.9784C126.077 42.5154 125.827 41.9568 125.827 41.3026C125.827 40.6485 126.041 40.1673 126.471 39.762C126.901 39.3566 127.774 38.9694 129.093 38.602C129.92 38.3729 130.477 38.1768 130.763 38.0121V37.3497C130.763 36.7038 130.584 36.1814 130.223 35.7843C129.862 35.3872 129.379 35.1895 128.773 35.1895C128.224 35.1895 127.736 35.3608 127.311 35.7052C126.886 36.0496 126.586 36.5159 126.415 37.1058L125.96 36.9822C126.14 36.155 126.532 35.4927 127.133 34.9934C127.735 34.4941 128.442 34.2437 129.252 34.2437C130.21 34.2437 130.986 34.532 131.579 35.1087C132.172 35.6854 132.469 36.4862 132.469 37.5095V41.329C132.469 41.8695 132.503 42.2353 132.573 42.4281C132.642 42.6208 132.775 42.7164 132.971 42.7164C133.102 42.7164 133.209 42.6604 133.291 42.55C133.373 42.4396 133.467 42.2089 133.573 41.8563H134.003C133.962 42.4132 133.789 42.8548 133.48 43.1827C133.172 43.5106 132.77 43.6738 132.271 43.6738C131.543 43.6738 131.039 43.2519 130.76 42.4083C130.318 42.8911 129.925 43.2223 129.58 43.4035C129.236 43.5831 128.831 43.6738 128.364 43.6738L128.369 43.6721ZM130.763 41.5844V38.5624C130.51 38.6695 130.14 38.8046 129.658 38.9678C128.765 39.271 128.194 39.5725 127.944 39.8707C127.694 40.169 127.57 40.5727 127.57 41.0802C127.57 41.5218 127.703 41.9057 127.969 42.2287C128.234 42.5516 128.552 42.7131 128.921 42.7131C129.257 42.7131 129.608 42.6044 129.977 42.3869C130.346 42.1694 130.608 41.9024 130.763 41.5828V41.5844Z" fill="#111110"/>
<path d="M137.982 31.4656H138.412V34.4628H141.506V35.1137H138.412V40.8496C138.412 41.4477 138.55 41.9074 138.829 42.232C139.107 42.555 139.504 42.7165 140.02 42.7165C140.626 42.7165 141.178 42.4297 141.678 41.8563L141.96 42.1875C141.182 43.1778 140.285 43.6738 139.27 43.6738C138.509 43.6738 137.891 43.4316 137.417 42.9488C136.942 42.466 136.705 41.8431 136.705 41.0819V35.1137H135.022V34.6836C136.25 34.069 137.237 32.9963 137.982 31.4656Z" fill="#111110"/>
<path d="M146.283 34.2404H146.713V41.7426C146.713 42.2353 146.82 42.5632 147.032 42.7263C147.245 42.8911 147.634 42.9718 148.199 42.9718V43.3887H143.323V42.9718C144.035 42.9718 144.495 42.8911 144.699 42.7313C144.903 42.5714 145.006 42.2402 145.006 41.7393V36.2572C145.006 35.7151 144.912 35.3575 144.724 35.1862C144.536 35.0132 144.068 34.9275 143.323 34.9275V34.5106L146.283 34.2404ZM145.889 29.6349C146.192 29.6349 146.447 29.7387 146.657 29.948C146.866 30.1572 146.97 30.4126 146.97 30.7158C146.97 31.019 146.863 31.2793 146.65 31.4952C146.438 31.7127 146.184 31.8215 145.889 31.8215C145.594 31.8215 145.324 31.7127 145.103 31.4952C144.882 31.2777 144.772 31.019 144.772 30.7158C144.772 30.4126 144.88 30.1572 145.098 29.948C145.315 29.7387 145.579 29.6349 145.89 29.6349H145.889Z" fill="#111110"/>
<path d="M159.892 38.9694C159.892 40.3123 159.427 41.4311 158.498 42.3291C157.568 43.2255 156.408 43.6737 155.016 43.6737C153.623 43.6737 152.463 43.2255 151.534 42.3291C150.605 41.4328 150.14 40.3123 150.14 38.9694C150.14 37.6264 150.603 36.4829 151.528 35.5865C152.452 34.6901 153.615 34.2419 155.016 34.2419C156.416 34.2419 157.578 34.6901 158.504 35.5865C159.429 36.4829 159.892 37.6116 159.892 38.9694ZM158.038 38.9759C158.038 37.7055 157.768 36.6806 157.227 35.9012C156.687 35.1218 155.95 34.733 155.016 34.733C154.082 34.733 153.345 35.1136 152.805 35.8765C152.264 36.6394 151.994 37.6726 151.994 38.9759C151.994 40.2793 152.262 41.2762 152.798 42.0391C153.333 42.802 154.073 43.1827 155.014 43.1827C155.955 43.1827 156.695 42.7971 157.23 42.0259C157.766 41.2548 158.035 40.2381 158.035 38.9759H158.038Z" fill="#111110"/>
<path d="M165.233 34.2404V36.0216C166.273 34.8352 167.346 34.2404 168.451 34.2404C169.311 34.2404 170.027 34.5337 170.6 35.1203C171.173 35.7069 171.46 36.4797 171.46 37.4387V41.4608C171.46 42.0754 171.562 42.4824 171.767 42.6785C171.971 42.8746 172.373 42.9735 172.969 42.9735V43.3903H168.216V42.9735C168.806 42.9735 169.208 42.8977 169.425 42.7461C169.643 42.5945 169.751 42.3012 169.751 41.8662V37.2047C169.751 36.5818 169.565 36.0858 169.193 35.7167C168.82 35.3476 168.343 35.1631 167.763 35.1631C166.927 35.1631 166.083 35.7448 165.233 36.9064V41.2631C165.233 42.0013 165.329 42.4709 165.52 42.6719C165.711 42.873 166.111 42.9735 166.719 42.9735V43.3903H162.028V42.9735C162.707 42.9735 163.126 42.8647 163.281 42.6472C163.436 42.4297 163.515 41.9683 163.515 41.2614V36.2358C163.515 35.7019 163.421 35.3509 163.233 35.1829C163.045 35.0148 162.643 34.9308 162.03 34.9308V34.5139L164.806 34.2437H165.236L165.233 34.2404Z" fill="#111110"/>
<path d="M180.903 34.2404V36.979H180.399C180.317 36.2919 180.071 35.7448 179.663 35.3395C179.252 34.9341 178.758 34.7314 178.176 34.7314C177.735 34.7314 177.379 34.8418 177.109 35.0626C176.838 35.2834 176.703 35.5784 176.703 35.9475C176.703 36.3166 176.829 36.6247 177.077 36.8999C177.328 37.1751 177.87 37.5046 178.705 37.8886C179.786 38.3796 180.5 38.8508 180.849 39.3007C181.197 39.7505 181.371 40.291 181.371 40.9221C181.371 41.6669 181.093 42.3128 180.536 42.8565C179.979 43.4003 179.32 43.6738 178.559 43.6738C178.167 43.6738 177.646 43.5305 176.998 43.2438C176.646 43.0889 176.413 43.0098 176.298 43.0098C176.143 43.0098 176.011 43.0675 175.904 43.1811C175.797 43.2965 175.736 43.4398 175.72 43.6112H175.29V40.5777H175.72C175.875 41.3752 176.219 42.0096 176.751 42.4776C177.283 42.9472 177.893 43.1811 178.582 43.1811C179.023 43.1811 179.394 43.0328 179.694 42.7379C179.992 42.443 180.142 42.0771 180.142 41.6421C180.142 41.2071 180.004 40.8611 179.729 40.553C179.453 40.2448 178.857 39.8906 177.941 39.4885C176.909 39.037 176.23 38.6136 175.904 38.2214C175.578 37.8276 175.413 37.353 175.413 36.7961C175.413 36.0991 175.682 35.4993 176.217 34.9951C176.753 34.4909 177.39 34.2388 178.127 34.2388C178.471 34.2388 178.844 34.3212 179.244 34.4843C179.531 34.5996 179.763 34.6557 179.944 34.6557C180.182 34.6557 180.358 34.5172 180.473 34.2388H180.903V34.2404Z" fill="#111110"/>
<path d="M195.713 28.984V29.4009C195.099 29.4009 194.674 29.569 194.436 29.9051C194.199 30.2412 194.081 30.8394 194.081 31.6995V40.6847C194.081 41.5449 194.199 42.1413 194.436 42.4742C194.674 42.8054 195.099 42.9718 195.713 42.9718V43.3887H190.531V42.9718C191.162 42.9718 191.591 42.8087 191.821 42.4808C192.05 42.1529 192.166 41.5547 192.166 40.6864V31.7012C192.166 30.8163 192.054 30.2116 191.828 29.8886C191.602 29.5657 191.171 29.4025 190.533 29.4025V28.9857H195.715L195.713 28.984Z" fill="#111110"/>
<path d="M200.847 34.2404V36.0216C201.886 34.8352 202.959 34.2404 204.065 34.2404C204.925 34.2404 205.64 34.5337 206.213 35.1203C206.787 35.7069 207.073 36.4797 207.073 37.4387V41.4608C207.073 42.0754 207.176 42.4824 207.38 42.6785C207.584 42.8746 207.986 42.9735 208.583 42.9735V43.3903H203.829V42.9735C204.419 42.9735 204.821 42.8977 205.038 42.7461C205.256 42.5945 205.365 42.3012 205.365 41.8662V37.2047C205.365 36.5818 205.178 36.0858 204.806 35.7167C204.434 35.3476 203.956 35.1631 203.376 35.1631C202.54 35.1631 201.697 35.7448 200.847 36.9064V41.2631C200.847 42.0013 200.942 42.4709 201.133 42.6719C201.324 42.873 201.725 42.9735 202.333 42.9735V43.3903H197.642V42.9735C198.32 42.9735 198.739 42.8647 198.894 42.6472C199.049 42.4297 199.128 41.9683 199.128 41.2614V36.2358C199.128 35.7019 199.034 35.3509 198.846 35.1829C198.658 35.0148 198.256 34.9308 197.643 34.9308V34.5139L200.42 34.2437H200.85L200.847 34.2404Z" fill="#111110"/>
<path d="M213.238 34.2404H213.668V41.7426C213.668 42.2353 213.775 42.5632 213.987 42.7263C214.2 42.8911 214.589 42.9718 215.154 42.9718V43.3887H210.278V42.9718C210.99 42.9718 211.45 42.8911 211.654 42.7313C211.859 42.5714 211.961 42.2402 211.961 41.7393V36.2572C211.961 35.7151 211.867 35.3575 211.679 35.1862C211.491 35.0132 211.023 34.9275 210.278 34.9275V34.5106L213.238 34.2404ZM212.844 29.6349C213.147 29.6349 213.402 29.7387 213.612 29.948C213.821 30.1572 213.925 30.4126 213.925 30.7158C213.925 31.019 213.818 31.2793 213.605 31.4952C213.393 31.7127 213.139 31.8215 212.844 31.8215C212.549 31.8215 212.279 31.7127 212.058 31.4952C211.837 31.2777 211.727 31.019 211.727 30.7158C211.727 30.4126 211.835 30.1572 212.053 29.948C212.27 29.7387 212.534 29.6349 212.846 29.6349H212.844Z" fill="#111110"/>
<path d="M220.053 31.4656H220.483V34.4628H223.577V35.1137H220.483V40.8496C220.483 41.4477 220.621 41.9074 220.9 42.232C221.178 42.555 221.575 42.7165 222.091 42.7165C222.697 42.7165 223.249 42.4297 223.749 41.8563L224.03 42.1875C223.253 43.1778 222.356 43.6738 221.341 43.6738C220.58 43.6738 219.962 43.4316 219.487 42.9488C219.013 42.466 218.776 41.8431 218.776 41.0819V35.1137H217.093V34.6836C218.321 34.069 219.308 32.9963 220.053 31.4656Z" fill="#111110"/>
<path d="M228.354 34.2404H228.784V41.7426C228.784 42.2353 228.891 42.5632 229.104 42.7263C229.316 42.8911 229.705 42.9718 230.27 42.9718V43.3887H225.395V42.9718C226.106 42.9718 226.566 42.8911 226.77 42.7313C226.975 42.5714 227.077 42.2402 227.077 41.7393V36.2572C227.077 35.7151 226.983 35.3575 226.795 35.1862C226.607 35.0132 226.139 34.9275 225.395 34.9275V34.5106L228.354 34.2404ZM227.96 29.6349C228.263 29.6349 228.519 29.7387 228.728 29.948C228.937 30.1572 229.041 30.4126 229.041 30.7158C229.041 31.019 228.934 31.2793 228.721 31.4952C228.509 31.7127 228.255 31.8215 227.96 31.8215C227.665 31.8215 227.395 31.7127 227.174 31.4952C226.953 31.2777 226.843 31.019 226.843 30.7158C226.843 30.4126 226.952 30.1572 227.169 29.948C227.387 29.7387 227.65 29.6349 227.962 29.6349H227.96Z" fill="#111110"/>
<path d="M235.095 43.6721C234.4 43.6721 233.802 43.4414 233.302 42.9784C232.803 42.5154 232.553 41.9568 232.553 41.3026C232.553 40.6485 232.767 40.1673 233.197 39.762C233.627 39.3566 234.5 38.9694 235.819 38.602C236.646 38.3729 237.203 38.1768 237.489 38.0121V37.3497C237.489 36.7038 237.31 36.1814 236.949 35.7843C236.588 35.3872 236.105 35.1895 235.499 35.1895C234.95 35.1895 234.462 35.3608 234.037 35.7052C233.612 36.0496 233.312 36.5159 233.141 37.1058L232.686 36.9822C232.866 36.155 233.258 35.4927 233.859 34.9934C234.461 34.4941 235.168 34.2437 235.978 34.2437C236.936 34.2437 237.712 34.532 238.305 35.1087C238.898 35.6854 239.195 36.4862 239.195 37.5095V41.329C239.195 41.8695 239.229 42.2353 239.299 42.4281C239.368 42.6208 239.501 42.7164 239.697 42.7164C239.828 42.7164 239.935 42.6604 240.017 42.55C240.099 42.4396 240.193 42.2089 240.299 41.8563H240.729C240.688 42.4132 240.515 42.8548 240.207 43.1827C239.898 43.5106 239.496 43.6738 238.997 43.6738C238.269 43.6738 237.765 43.2519 237.486 42.4083C237.045 42.8911 236.651 43.2223 236.306 43.4035C235.962 43.5831 235.557 43.6738 235.09 43.6738L235.095 43.6721ZM237.489 41.5844V38.5624C237.236 38.6695 236.867 38.8046 236.384 38.9678C235.491 39.271 234.921 39.5725 234.67 39.8707C234.42 40.169 234.296 40.5727 234.296 41.0802C234.296 41.5218 234.43 41.9057 234.695 42.2287C234.96 42.5516 235.278 42.7131 235.647 42.7131C235.983 42.7131 236.334 42.6044 236.703 42.3869C237.073 42.1694 237.335 41.9024 237.489 41.5828V41.5844Z" fill="#111110"/>
<path d="M244.532 31.4656H244.962V34.4628H248.057V35.1137H244.962V40.8496C244.962 41.4477 245.101 41.9074 245.379 42.232C245.658 42.555 246.055 42.7165 246.57 42.7165C247.177 42.7165 247.729 42.4297 248.228 41.8563L248.51 42.1875C247.732 43.1778 246.836 43.6738 245.821 43.6738C245.059 43.6738 244.442 43.4316 243.967 42.9488C243.492 42.466 243.255 41.8431 243.255 41.0819V35.1137H241.573V34.6836C242.8 34.069 243.787 32.9963 244.532 31.4656Z" fill="#111110"/>
<path d="M252.833 34.2404H253.263V41.7426C253.263 42.2353 253.371 42.5632 253.583 42.7263C253.796 42.8911 254.185 42.9718 254.75 42.9718V43.3887H249.874V42.9718C250.586 42.9718 251.046 42.8911 251.25 42.7313C251.454 42.5714 251.556 42.2402 251.556 41.7393V36.2572C251.556 35.7151 251.462 35.3575 251.275 35.1862C251.087 35.0132 250.619 34.9275 249.874 34.9275V34.5106L252.833 34.2404ZM252.44 29.6349C252.743 29.6349 252.998 29.7387 253.207 29.948C253.417 30.1572 253.521 30.4126 253.521 30.7158C253.521 31.019 253.413 31.2793 253.201 31.4952C252.988 31.7127 252.735 31.8215 252.44 31.8215C252.145 31.8215 251.874 31.7127 251.654 31.4952C251.433 31.2777 251.322 31.019 251.322 30.7158C251.322 30.4126 251.431 30.1572 251.649 29.948C251.866 29.7387 252.13 29.6349 252.441 29.6349H252.44Z" fill="#111110"/>
<path d="M260.207 34.5106V34.9274C259.625 34.9769 259.335 35.2257 259.335 35.6706C259.335 35.8848 259.401 36.1534 259.531 36.4763L261.515 41.2268L263.262 36.7186C263.441 36.2654 263.532 35.9227 263.532 35.692C263.532 35.2389 263.148 34.9835 262.382 34.9258V34.5089H265.649V34.9258C265.115 34.9752 264.745 35.0823 264.536 35.2488C264.326 35.4135 264.127 35.7365 263.939 36.216L261.064 43.5848H260.644L257.791 36.5966C257.505 35.8963 257.256 35.4481 257.048 35.2537C256.84 35.0593 256.46 34.9505 255.911 34.9258V34.5089H260.21L260.207 34.5106Z" fill="#111110"/>
<path d="M275.3 41.1066V41.7574C274.759 42.4445 274.209 42.9372 273.647 43.2305C273.087 43.5255 272.413 43.6721 271.627 43.6721C270.235 43.6721 269.086 43.2355 268.182 42.3638C267.277 41.4921 266.824 40.3848 266.824 39.0419C266.824 37.699 267.255 36.5538 268.119 35.6278C268.982 34.7034 270.042 34.2404 271.294 34.2404C272.326 34.2404 273.227 34.588 273.996 35.285C274.766 35.9804 275.151 36.8125 275.151 37.7781V37.9626H268.605V38.0862C268.605 39.0683 268.755 39.9218 269.053 40.6468C269.351 41.3718 269.788 41.9387 270.361 42.3473C270.935 42.7576 271.533 42.9619 272.154 42.9619C272.736 42.9619 273.234 42.8416 273.647 42.5994C274.061 42.3589 274.611 41.8612 275.3 41.1066ZM268.607 37.5326H273.458V37.3612C273.458 36.567 273.23 35.9359 272.775 35.4696C272.321 35.0033 271.754 34.7693 271.075 34.7693C270.355 34.7693 269.775 35.0148 269.337 35.5058C268.898 35.9969 268.654 36.6724 268.607 37.5326Z" fill="#111110"/>
<path d="M61.3972 0.0922852H0.000171597C0.000171597 0.0922852 0.000171597 30.5379 0.000171597 30.6977C-0.0410223 44.0215 7.34258 53.6707 13.5431 59.4198C20.3631 65.7422 27.8802 69.3887 30.393 69.9357L30.6979 70.0016L31.006 69.9357C33.5155 69.3887 41.0343 65.7439 47.8527 59.4214C54.0532 53.6724 61.4368 44.0231 61.3956 30.701C61.3956 30.3204 61.3956 0.0955807 61.3956 0.0955807L61.3972 0.0922852Z" fill="#111110"/>
<path d="M1.55261 1.71033C1.55261 1.71033 1.63335 19.4962 1.54932 19.4105H59.8519V1.71033H1.55261ZM17.1981 12.9068C17.2887 12.9777 17.381 13.0502 17.4469 13.1474C17.5161 13.2512 17.5523 13.3715 17.549 13.5033C17.5523 13.6286 17.5161 13.7505 17.4469 13.8543C17.381 13.9515 17.2887 14.024 17.1981 14.0949C17.0596 14.2036 16.9278 14.3058 16.9278 14.4854V15.5762H4.05226V14.4854C4.05226 14.3074 3.92044 14.2036 3.78203 14.0949C3.6914 14.024 3.59913 13.9515 3.53322 13.8543C3.46401 13.7505 3.42776 13.6302 3.43105 13.4984C3.42776 13.3731 3.46401 13.2512 3.53322 13.1474C3.59913 13.0502 3.6914 12.9777 3.78203 12.9068C3.92044 12.7981 4.05226 12.6959 4.05226 12.5163V8.95716C4.05226 8.7792 3.92044 8.67539 3.78203 8.56664C3.6914 8.49579 3.59913 8.42329 3.53322 8.32607C3.46401 8.22226 3.42776 8.10197 3.43105 7.97015C3.42776 7.84492 3.46401 7.72299 3.53322 7.61918C3.59913 7.52196 3.69634 7.44617 3.78203 7.37861C3.92044 7.26986 4.05226 7.1677 4.05226 6.98809V5.86432H4.21539C4.96841 5.86432 5.62751 5.84784 6.08724 5.65011C6.27508 5.56937 6.4481 5.46062 6.63265 5.34528C7.02646 5.09811 7.47465 4.81635 8.14364 4.81635C8.68081 4.81635 9.17843 5.01737 9.62003 5.19533C9.93145 5.32056 10.2264 5.4392 10.4456 5.4392H10.5329C10.752 5.4392 11.047 5.32056 11.3601 5.19533C11.8 5.01902 12.2976 4.818 12.8348 4.818C13.5038 4.818 13.9503 5.09976 14.3458 5.34693C14.5287 5.46227 14.7017 5.57102 14.8896 5.65176C15.3493 5.84784 16.01 5.86432 16.7631 5.86597H16.9262V6.98974C16.9262 7.1677 17.058 7.27151 17.1964 7.38026C17.2821 7.44782 17.3793 7.52196 17.4452 7.61918C17.5144 7.72299 17.5507 7.84328 17.5474 7.9751C17.5507 8.10033 17.5144 8.22226 17.4452 8.32607C17.3793 8.42329 17.287 8.49579 17.1964 8.56664C17.058 8.67539 16.9262 8.77755 16.9262 8.95716V12.5163C16.9262 12.6943 17.058 12.7981 17.1964 12.9068H17.1981ZM41.8337 14.7672C40.8384 16.3589 38.9171 16.7494 38.838 16.7642C38.4591 16.8318 38.0702 16.8647 37.6813 16.8647C35.6744 16.8647 33.8206 15.9914 31.9389 15.0193C31.7263 14.9089 31.4923 14.7803 31.2386 14.6419C30.0374 13.9845 28.3616 13.0667 26.9429 13.0667C26.531 13.0667 26.1388 13.1441 25.7878 13.3287L25.7301 13.36L25.7269 13.4259C25.717 13.6104 25.6824 13.7867 25.6214 13.9482C25.3957 14.5529 24.6558 15.1972 24.2966 15.4526C23.4711 16.0458 22.4561 16.6538 21.1922 16.6538C21.0027 16.6538 20.8281 16.6275 20.6715 16.5731C20.4441 16.4956 20.2497 16.3589 20.1063 16.176C20.0371 16.087 19.9795 15.9865 19.9333 15.8761C19.8971 15.7888 19.874 15.7014 19.8608 15.5943L19.8509 15.5202L19.7801 15.4988C19.2907 15.3521 18.9974 15.0308 18.9974 14.6403C18.9974 14.347 19.2149 14.0899 19.4242 13.8411C19.7504 13.4539 20.0338 13.1194 19.5725 12.6827C19.5296 12.6415 19.4786 12.6053 19.4308 12.569C19.3632 12.5196 19.3006 12.4718 19.2429 12.4109C18.8392 11.9775 19.0781 11.0778 19.2199 10.539L19.2347 10.4813C19.3896 9.89144 19.6269 9.28342 19.9613 8.61937C20.4128 7.7197 20.9599 6.70633 21.7261 6.06535C21.7409 6.05217 21.7607 6.04722 21.7805 6.05052C21.8002 6.05381 21.8184 6.06535 21.8283 6.08183C21.8431 6.10489 21.9271 6.23342 22.0474 6.43444L22.1759 6.6503L22.255 6.41302C22.4676 5.77699 22.8186 5.36505 23.2997 5.18874C23.8138 4.99925 24.2933 5.26454 24.5339 5.4392L24.6344 5.51335L24.7003 5.40625C24.8535 5.15579 25.137 4.85425 25.6115 4.83283C26.1322 4.80976 26.5573 5.16403 26.7633 5.37988L26.8374 5.45733L26.9198 5.38812C27.1522 5.19368 27.7602 4.75044 28.3699 4.83283C28.9466 4.91027 29.1674 5.41448 29.2349 5.62704L29.2761 5.75557L29.3964 5.69625C29.6683 5.56113 30.1972 5.38318 30.6948 5.69955C31.0145 5.90222 31.0524 6.24825 31.0277 6.502L31.0129 6.65195L31.1611 6.62723C31.5352 6.56462 32.224 6.52013 32.6326 6.93866C32.9539 7.26656 32.9753 7.69168 32.9358 7.99157L32.916 8.13823L33.0627 8.1201C33.3906 8.0822 33.8322 8.11351 34.0694 8.48096C34.2309 8.73142 34.1683 9.08404 34.1156 9.27188L34.0843 9.38723L34.1996 9.41524C34.3908 9.46137 34.7253 9.58001 34.8258 9.85519C34.8999 10.0595 34.8768 10.3989 34.7598 10.7895L34.7302 10.89L34.8274 10.9295C34.9938 10.9971 35.2954 11.1602 35.4601 11.4832C35.62 11.7995 35.6134 12.1934 35.4387 12.6531L35.4107 12.7272L35.47 12.78C35.8968 13.1589 36.3285 13.5083 36.7503 13.8147C37.6072 14.4376 38.9452 14.7688 39.8531 14.0224C40.1958 13.7406 40.349 13.2249 40.2321 12.7404C40.1299 12.312 39.8465 12.0154 39.456 11.9297C38.7705 11.7781 38.2267 12.4306 37.7851 13.0881C37.7703 13.1095 37.7456 13.121 37.7209 13.1177C37.6962 13.1145 37.6731 13.0996 37.6632 13.0749C37.2562 12.1027 37.2364 11.297 37.6039 10.6774C37.9153 10.1518 38.5151 9.78433 39.25 9.66734L39.3489 9.65251V9.552C39.334 8.40022 39.6108 7.56151 40.1661 7.0573C40.5039 6.75081 41.1268 6.41632 42.1682 6.55638C42.1896 6.55967 42.2094 6.57286 42.2192 6.59098C42.2308 6.60911 42.2308 6.63218 42.2225 6.65195C41.4563 8.49579 41.6458 9.18785 42.0627 10.7021C42.099 10.8356 42.1369 10.974 42.1764 11.1207C42.5603 12.5559 42.4433 13.7834 41.8271 14.7704L41.8337 14.7672ZM57.6192 12.9068C57.7098 12.9777 57.8021 13.0502 57.868 13.1474C57.9372 13.2512 57.9734 13.3715 57.9701 13.5033C57.9734 13.6286 57.9372 13.7505 57.868 13.8543C57.8021 13.9515 57.7098 14.024 57.6192 14.0949C57.4808 14.2036 57.3489 14.3058 57.3489 14.4854V15.5762H44.475V14.4854C44.475 14.3074 44.3432 14.2036 44.2048 14.0949C44.1142 14.024 44.0219 13.9515 43.956 13.8543C43.8868 13.7505 43.8505 13.6302 43.8538 13.4984C43.8505 13.3731 43.8868 13.2512 43.956 13.1474C44.0219 13.0502 44.1142 12.9777 44.2048 12.9068C44.3432 12.7981 44.475 12.6959 44.475 12.5163V8.95716C44.475 8.7792 44.3432 8.67539 44.2048 8.56664C44.1142 8.49579 44.0219 8.42329 43.956 8.32607C43.8868 8.22226 43.8505 8.10197 43.8538 7.97015C43.8505 7.84492 43.8868 7.72299 43.956 7.61918C44.0219 7.52196 44.1191 7.44617 44.2048 7.37861C44.3432 7.26986 44.475 7.1677 44.475 6.98809V5.86432H44.6381C45.3912 5.86432 46.0503 5.84784 46.51 5.65011C46.6978 5.56937 46.8709 5.46062 47.0554 5.34528C47.4492 5.09811 47.8974 4.81635 48.5664 4.81635C49.1036 4.81635 49.6012 5.01737 50.0428 5.19533C50.3542 5.32056 50.6492 5.4392 50.8683 5.4392H50.9556C51.1748 5.4392 51.4698 5.32056 51.7828 5.19533C52.2228 5.01902 52.7204 4.818 53.2576 4.818C53.9266 4.818 54.3731 5.09976 54.7686 5.34693C54.9515 5.46227 55.1245 5.57102 55.3123 5.65176C55.772 5.84784 56.4328 5.86432 57.1858 5.86597H57.3489V6.98974C57.3489 7.1677 57.4808 7.27151 57.6192 7.38026C57.7049 7.44782 57.8021 7.52196 57.868 7.61918C57.9372 7.72299 57.9734 7.84328 57.9701 7.9751C57.9734 8.10033 57.9372 8.22226 57.868 8.32607C57.8021 8.42329 57.7098 8.49579 57.6192 8.56664C57.4808 8.67539 57.3489 8.77755 57.3489 8.95716V12.5163C57.3489 12.6943 57.4808 12.7981 57.6192 12.9068Z" fill="#990000"/>
<path d="M21.6372 12.1406C21.8415 12.1406 22.036 12.1934 22.2271 12.3515C22.2914 12.4043 22.349 12.457 22.4001 12.5064C22.5336 12.6333 22.5254 12.8492 22.382 12.9662C22.237 13.0831 22.0722 13.2001 21.9701 13.271C21.7328 13.4341 21.3258 13.7324 21.044 13.4967C20.9007 13.3781 21.1841 13.1853 21.0605 12.6959C20.9633 12.312 21.3423 12.1406 21.6372 12.1406Z" fill="#011F5B"/>
<path d="M37.6816 16.9801C35.6713 16.9801 33.7896 16.1052 31.8864 15.1215C31.6722 15.0111 31.4349 14.8809 31.1845 14.7441C29.6504 13.9038 27.3469 12.6432 25.8441 13.4325C25.8342 13.6302 25.7963 13.8164 25.732 13.9894C25.4964 14.6205 24.7352 15.2846 24.3661 15.5482C23.5257 16.1529 22.4909 16.7709 21.1941 16.7709C20.9915 16.7709 20.8036 16.7412 20.6355 16.6835C20.3867 16.5995 20.1725 16.4479 20.0176 16.2469C19.9418 16.1497 19.8792 16.0393 19.8281 15.919C19.7836 15.8135 19.7606 15.713 19.7474 15.6075C19.2102 15.4461 18.8823 15.0836 18.8823 14.6387C18.8823 14.3025 19.113 14.029 19.3371 13.7653C19.7013 13.3353 19.8594 13.1128 19.4953 12.7652C19.4574 12.7289 19.4129 12.696 19.3651 12.6597C19.2959 12.6086 19.2267 12.5559 19.1608 12.4867C18.7126 12.0072 18.9614 11.068 19.1114 10.5061L19.1262 10.4484C19.2827 9.85193 19.5233 9.23402 19.8611 8.56338C20.3192 7.65382 20.8728 6.62727 21.6555 5.97311C21.6967 5.9385 21.7494 5.92367 21.8021 5.93191C21.8549 5.94015 21.901 5.96981 21.9307 6.0143C21.9587 6.0555 22.2718 6.53664 22.598 7.16938C23.9607 6.35374 25.9001 6.26146 26.1242 6.25323C27.3238 6.20874 29.0638 6.39823 30.5451 7.54177C31.4662 8.25196 32.2259 9.1335 32.9608 9.98375C33.1519 10.2062 33.3513 10.4352 33.549 10.6593C34.6794 11.9314 35.7521 12.9316 36.828 13.7143C37.6503 14.3124 38.9289 14.6337 39.7891 13.9268C40.0988 13.6714 40.2356 13.2035 40.1301 12.7619C40.0379 12.3779 39.7874 12.1143 39.4414 12.0369C38.8235 11.9001 38.311 12.5213 37.8908 13.1474C37.8529 13.2035 37.787 13.2348 37.7195 13.2282C37.6519 13.2216 37.5926 13.1787 37.5662 13.1161C37.1444 12.1094 37.1279 11.2673 37.5135 10.6148C37.8414 10.0612 38.4807 9.67067 39.242 9.55039C39.2288 8.364 39.5172 7.49728 40.0988 6.97C40.4548 6.64704 41.1073 6.29277 42.1948 6.43942C42.2525 6.44766 42.3019 6.48062 42.3299 6.53005C42.3579 6.57948 42.3629 6.64045 42.3398 6.69318C41.5901 8.50077 41.7763 9.17964 42.1833 10.6659C42.2195 10.7994 42.2591 10.9394 42.2986 11.0877C42.6924 12.5559 42.5688 13.8131 41.9344 14.8282C40.9128 16.4627 38.9438 16.8615 38.8614 16.878C38.4643 16.9488 38.0721 16.9801 37.6849 16.9801H37.6816ZM26.958 12.8047C28.413 12.8047 30.064 13.7093 31.3608 14.4179C31.6096 14.5546 31.8452 14.6831 32.0561 14.7919C34.2674 15.9354 36.4458 16.9274 38.7905 16.5122C38.807 16.5089 40.6838 16.1266 41.6197 14.6271C42.1964 13.7044 42.3035 12.5444 41.9377 11.1817C41.8982 11.035 41.8603 10.895 41.824 10.7615C41.4352 9.34607 41.2144 8.54196 41.9031 6.77886C41.1023 6.72778 40.6179 6.99472 40.3444 7.24023C39.8187 7.71479 39.5732 8.54361 39.6128 9.70198C39.616 9.7992 39.5435 9.88323 39.4463 9.89312C38.7263 9.96727 38.1215 10.3067 37.8282 10.801C37.5448 11.2789 37.5283 11.9001 37.7804 12.6465C38.138 12.1588 38.7427 11.5013 39.5155 11.6727C39.9983 11.7798 40.3608 12.1538 40.4844 12.6729C40.6228 13.2496 40.435 13.8675 40.0181 14.2102C39.0047 15.0424 37.5382 14.6914 36.6039 14.0125C35.5049 13.2134 34.4124 12.1967 33.2656 10.9048C33.0662 10.6807 32.8668 10.4484 32.674 10.226C31.9507 9.38891 31.2043 8.52219 30.3128 7.83507C28.9188 6.75909 27.2694 6.58278 26.1308 6.62397C25.3564 6.65198 23.7992 6.86949 22.7578 7.50223C23.0775 8.16627 23.3659 8.93083 23.3659 9.51908C23.3659 9.62289 23.3444 9.72835 23.3082 9.8338C24.0645 9.38726 24.9691 9.70692 25.4799 10.2622C25.5936 10.3858 25.709 10.5638 25.8441 10.7681C26.0418 11.068 26.2659 11.4091 26.5362 11.6678C26.5757 11.7057 26.5971 11.76 26.5922 11.8161C26.5872 11.8704 26.5592 11.9215 26.5147 11.9528C26.5098 11.9561 26.0303 12.2939 25.3531 12.7965C25.2624 12.864 25.1636 12.9299 25.0779 12.9893C25.0614 13.0008 25.0449 13.0123 25.0268 13.0239L25.6249 13.126C26.0352 12.8986 26.4867 12.8031 26.958 12.8031V12.8047ZM21.7296 6.40152C21.0821 7.01449 20.596 7.92076 20.1873 8.7331C19.8611 9.38067 19.6304 9.97386 19.4788 10.5456L19.464 10.605C19.3519 11.0284 19.1196 11.9067 19.4261 12.2379C19.4673 12.2824 19.5217 12.3219 19.5793 12.3648C19.6337 12.4059 19.6897 12.4471 19.7441 12.4982C20.3801 13.0997 19.9369 13.6236 19.6156 14.0059C19.4277 14.2284 19.2481 14.4393 19.2481 14.6403C19.2481 15.0868 19.7886 15.2434 19.955 15.2813C20.0341 15.2994 20.0934 15.367 20.0984 15.4477C20.1083 15.5779 20.1214 15.6718 20.1643 15.7756C20.2022 15.8646 20.2483 15.947 20.3043 16.0178C20.4164 16.1612 20.5696 16.2699 20.7492 16.3309C20.8794 16.3754 21.0277 16.3985 21.1875 16.3985C22.3805 16.3985 23.351 15.8152 24.1436 15.245C24.6182 14.9089 25.2114 14.3075 25.3778 13.8593C25.4223 13.739 25.4503 13.6121 25.4635 13.477L24.6297 13.3353C24.6297 13.3353 24.6149 13.332 24.6066 13.3303C24.5193 13.304 24.46 13.2381 24.4468 13.1557C24.4204 12.9893 24.5687 12.8871 24.8653 12.6861C24.9527 12.6267 25.0433 12.5658 25.1273 12.5015C25.5656 12.1769 25.9215 11.9199 26.1209 11.7765C25.8902 11.5178 25.6942 11.2212 25.531 10.974C25.4041 10.7829 25.2954 10.6165 25.2031 10.5143C24.7895 10.0645 24.0596 9.80249 23.468 10.1699C23.2291 10.3182 23.0198 10.5044 22.799 10.6989C22.6194 10.8571 22.4349 11.0202 22.2322 11.1635C22.1531 11.2196 22.0444 11.2047 21.9834 11.1306C21.9224 11.0564 21.9274 10.946 21.9982 10.8785C22.0246 10.8521 22.0559 10.8225 22.0922 10.7895C22.3624 10.5357 22.9951 9.94091 22.9951 9.51908C22.9951 8.54361 22.0608 6.93869 21.728 6.39988L21.7296 6.40152Z" fill="#011F5B"/>
<path d="M20.4791 15.7015C20.3045 15.7015 20.1265 15.6916 19.9453 15.6702C19.8431 15.6586 19.7706 15.5664 19.7838 15.4642C19.7953 15.362 19.8876 15.2895 19.9897 15.3027C20.8334 15.4032 22.0643 15.2895 23.1386 14.1855C23.2095 14.113 23.3265 14.1114 23.4006 14.1823C23.4747 14.2531 23.4764 14.3701 23.4039 14.4442C22.5981 15.2747 21.5947 15.7031 20.4808 15.7031L20.4791 15.7015Z" fill="#011F5B"/>
<path d="M35.3419 12.9217C35.3188 12.9217 35.2958 12.9168 35.2727 12.9069C35.1854 12.869 35.1442 12.7669 35.1837 12.6795C35.3765 12.2346 35.4045 11.8655 35.2628 11.5838C35.0717 11.2031 34.6268 11.0944 34.6218 11.0944C34.574 11.0828 34.5329 11.0515 34.5081 11.0071C34.4834 10.9626 34.4801 10.9115 34.4982 10.8653C34.5625 10.6907 34.7092 10.1832 34.6169 9.92942C34.5378 9.71027 34.1275 9.61964 33.9891 9.60481C33.9347 9.59987 33.8853 9.56856 33.8589 9.52077C33.8309 9.47299 33.8276 9.41532 33.849 9.36588C33.9067 9.22747 34.0253 8.82048 33.8853 8.60133C33.6118 8.1762 32.8917 8.38217 32.8851 8.38547C32.8241 8.40359 32.7566 8.38547 32.7121 8.33933C32.6676 8.2932 32.6528 8.22564 32.6725 8.16467C32.6742 8.15808 32.8801 7.50886 32.4764 7.09528C32.0035 6.61248 30.9902 6.8959 30.9803 6.89919C30.9193 6.91732 30.8518 6.89919 30.8073 6.85306C30.7628 6.80692 30.748 6.73936 30.7677 6.67839C30.7743 6.65533 30.9407 6.11816 30.5782 5.88912C30.0015 5.52496 29.3424 5.99128 29.3358 5.99622C29.2864 6.03247 29.2205 6.03906 29.1645 6.01435C29.1084 5.98963 29.0689 5.9369 29.0623 5.87594C29.059 5.84628 28.9651 5.14104 28.3439 5.05865C27.6732 4.96967 26.9631 5.65843 26.9565 5.66502C26.9219 5.69963 26.8724 5.71775 26.823 5.71446C26.7736 5.71116 26.7274 5.68644 26.6978 5.6469C26.6928 5.64031 26.2199 5.03064 25.6251 5.0603C25.05 5.08666 24.8259 5.66832 24.8226 5.67326C24.8012 5.72764 24.7551 5.76883 24.6974 5.78201C24.6397 5.7952 24.5804 5.77707 24.5392 5.73588C24.5343 5.73093 23.9658 5.18717 23.3825 5.40138C22.6492 5.66997 22.4416 6.56799 22.3724 6.86294V6.87283C22.3477 6.96675 22.2554 7.02442 22.1615 7.003C22.0676 6.98158 22.0099 6.88766 22.0313 6.79538V6.7855C22.1121 6.44606 22.3526 5.41127 23.2622 5.07677C23.8257 4.8708 24.3431 5.15257 24.6035 5.34206C24.7518 5.10149 25.0632 4.73734 25.607 4.71262C26.1804 4.68626 26.6384 5.07677 26.8477 5.29428C27.1163 5.07018 27.7408 4.62529 28.3884 4.71262C28.9535 4.78842 29.2353 5.23331 29.349 5.58593C29.6505 5.43599 30.219 5.25144 30.7611 5.59417C31.1368 5.83145 31.1731 6.23515 31.1484 6.50538C31.5422 6.43947 32.2754 6.39498 32.722 6.84976C33.0845 7.22051 33.096 7.70165 33.0581 7.99825C33.3761 7.96035 33.8968 7.97847 34.1753 8.41183C34.3565 8.6936 34.2989 9.06599 34.2363 9.29668C34.4719 9.35435 34.8278 9.49111 34.9431 9.80913C35.0552 10.1189 34.953 10.5687 34.8805 10.8143C35.0799 10.8967 35.3946 11.073 35.5726 11.4223C35.7637 11.7996 35.7407 12.2692 35.5034 12.8146C35.4754 12.8805 35.4111 12.9184 35.3452 12.9184L35.3419 12.9217Z" fill="#011F5B"/>
<path d="M34.4762 15.3109C34.4762 15.3109 34.4614 15.3109 34.4548 15.3109C34.3592 15.2994 34.2916 15.2137 34.3032 15.1181C34.3839 14.4557 33.995 14.3354 33.6507 14.2283C33.56 14.2003 33.4809 14.1756 33.4183 14.1394C33.2354 14.0339 33.2272 13.8131 33.2206 13.5791C33.2124 13.332 33.2041 13.0535 33.0163 12.8442C32.695 12.485 32.0573 12.7174 32.0507 12.719C31.993 12.7404 31.9288 12.7305 31.881 12.691C31.8332 12.6514 31.8101 12.5905 31.82 12.5295C31.82 12.5229 31.9222 11.8226 31.5201 11.4815C31.1774 11.1915 30.5315 11.2607 30.3107 11.3135C30.2563 11.3266 30.2003 11.3135 30.1591 11.2772C30.1179 11.241 30.0948 11.1882 30.0981 11.1322C30.1294 10.6988 29.9564 10.3265 29.6235 10.1106C29.3418 9.9277 29.0007 9.90298 28.7354 10.0463C28.0071 10.4385 27.7237 10.4649 26.9608 9.9244C26.7235 9.75633 26.4846 9.70031 26.2555 9.75798C25.9639 9.83213 25.6953 10.0925 25.5009 10.4896C25.458 10.5753 25.3542 10.6099 25.2685 10.5687C25.1828 10.5258 25.1466 10.422 25.1894 10.3363C25.43 9.84696 25.7777 9.52235 26.1698 9.42184C26.4978 9.3378 26.8405 9.4136 27.1618 9.64099C27.8028 10.0958 27.9494 10.0744 28.5723 9.73986C28.9496 9.53718 29.4258 9.56684 29.813 9.81895C30.192 10.0645 30.4194 10.4731 30.4458 10.9394C30.7605 10.9015 31.352 10.885 31.7442 11.2179C32.1166 11.5343 32.1792 12.0286 32.1792 12.3285C32.4709 12.2725 32.9537 12.2527 33.2766 12.6119C33.5485 12.9151 33.56 13.2924 33.5683 13.5676C33.5716 13.6632 33.5765 13.8049 33.5979 13.8428C33.6292 13.8592 33.6919 13.879 33.7545 13.8971C34.0824 13.9993 34.7645 14.2102 34.6476 15.1593C34.636 15.2467 34.5619 15.3109 34.4762 15.3109Z" fill="#011F5B"/>
<path d="M17.2707 12.8147C17.1273 12.7026 17.0449 12.6334 17.0449 12.5181V8.95891C17.0449 8.84357 17.1257 8.77437 17.2707 8.66232C17.3629 8.58982 17.4684 8.50743 17.5442 8.39538C17.6282 8.2718 17.6711 8.1268 17.6661 7.97685C17.6694 7.82691 17.6266 7.6819 17.5442 7.55832C17.4684 7.44627 17.3629 7.36389 17.2707 7.29138C17.1273 7.17934 17.0449 7.11013 17.0449 6.99479V5.75403H16.7632C16.1041 5.75403 15.3955 5.74579 14.9374 5.54971C14.7578 5.47391 14.5881 5.36681 14.4102 5.25311C14.0015 4.99606 13.5401 4.70605 12.8366 4.70605C12.278 4.70605 11.7672 4.91202 11.3173 5.09328C11.0158 5.21521 10.7307 5.32891 10.5346 5.32891H10.4473C10.2496 5.32891 9.96616 5.21356 9.66462 5.09328C9.21478 4.91202 8.70563 4.70605 8.14539 4.70605C7.4418 4.70605 6.98042 4.99771 6.57178 5.25311C6.39218 5.36681 6.22246 5.47226 6.0445 5.54971C5.58477 5.74579 4.87789 5.75403 4.21878 5.75403H3.93702V6.99479C3.93702 7.11013 3.85628 7.17934 3.71128 7.29138C3.619 7.36389 3.51354 7.44627 3.43775 7.55832C3.35371 7.6819 3.31087 7.82691 3.31581 7.97685C3.31252 8.1268 3.35536 8.2718 3.43775 8.39538C3.51354 8.50743 3.619 8.58982 3.71128 8.66232C3.85463 8.77437 3.93702 8.84357 3.93702 8.95891V12.5181C3.93702 12.6334 3.85628 12.7026 3.71128 12.8147C3.619 12.8872 3.51354 12.9696 3.43775 13.0816C3.35371 13.2052 3.31087 13.3502 3.31581 13.5001C3.31252 13.6501 3.35536 13.7951 3.43775 13.9187C3.51354 14.0307 3.619 14.1131 3.71128 14.1856C3.85463 14.2976 3.93702 14.3669 3.93702 14.4822V15.6735L3.92713 15.69H17.0548L17.0449 15.6735V14.4822C17.0449 14.3669 17.1257 14.2976 17.2707 14.1856C17.3629 14.1131 17.4684 14.0307 17.5442 13.9187C17.6282 13.7951 17.6711 13.6501 17.6661 13.5001C17.6694 13.3502 17.6266 13.2052 17.5442 13.0816C17.4684 12.9696 17.3629 12.8872 17.2707 12.8147ZM11.4722 5.47556C11.8874 5.30913 12.3571 5.11964 12.8366 5.11964C13.4199 5.11964 13.7939 5.35527 14.1894 5.60408C14.3739 5.72107 14.5667 5.84136 14.776 5.93034C14.9473 6.00284 15.1302 6.05392 15.3247 6.08852V13.6451C15.0149 13.5973 14.6787 13.5957 14.3228 13.5957C13.7807 13.5941 13.2188 13.5924 12.6784 13.4276C12.4938 13.3716 12.3093 13.3123 12.128 13.2546C11.5678 13.075 11.0784 12.9201 10.7324 12.8888C10.7258 12.8888 10.7175 12.8872 10.7109 12.8855V5.72437C10.9416 5.68812 11.1921 5.5876 11.4739 5.47391L11.4722 5.47556ZM6.20598 5.92869C6.41524 5.83971 6.60638 5.71943 6.79258 5.60243C7.18804 5.35362 7.56208 5.11799 8.14539 5.11799C8.62324 5.11799 9.0945 5.30749 9.50973 5.47391C9.80138 5.5909 10.0584 5.69471 10.2957 5.72766V12.8822C10.2809 12.8822 10.2661 12.8855 10.2529 12.8872C9.90684 12.9185 9.4191 13.075 8.85722 13.253C8.67597 13.3106 8.49142 13.37 8.30687 13.426C7.7664 13.5891 7.20452 13.5908 6.66241 13.5941C6.30814 13.5941 5.97035 13.5957 5.66057 13.6435V6.08687C5.85336 6.05227 6.03626 6.00119 6.20598 5.92869ZM17.3036 13.5051C17.3053 13.5825 17.2855 13.6534 17.2427 13.716C17.1982 13.7802 17.1257 13.8379 17.0466 13.9005C16.8834 14.0274 16.6824 14.1856 16.6824 14.4838V15.2764H4.29788V14.4838C4.29788 14.1856 4.0952 14.0274 3.93372 13.9005C3.85463 13.8396 3.78213 13.7819 3.73764 13.716C3.6948 13.6534 3.67502 13.5825 3.67667 13.5051V13.4935C3.67502 13.4161 3.6948 13.3452 3.73764 13.2826C3.78213 13.2184 3.85463 13.1607 3.93372 13.0981C4.09685 12.9712 4.29788 12.813 4.29788 12.5148V8.95562C4.29788 8.65737 4.0952 8.49919 3.93372 8.37231C3.85463 8.31135 3.78213 8.25367 3.73764 8.18776C3.6948 8.12515 3.67502 8.0543 3.67667 7.97685V7.96532C3.67502 7.88787 3.6948 7.81702 3.73764 7.7544C3.78213 7.69014 3.85463 7.63247 3.93372 7.56986C4.09685 7.44298 4.29788 7.28479 4.29788 6.98655V6.16102C4.30612 6.16102 4.31435 6.16102 4.32424 6.16102C4.6472 6.16102 4.96027 6.15773 5.25687 6.13301V14.3141H9.76513C9.85082 14.6371 10.1441 14.876 10.4934 14.876C10.8428 14.876 11.1361 14.6371 11.2217 14.3141H15.73V6.1396C16.025 6.16432 16.338 6.16761 16.6577 6.16761C16.6676 6.16761 16.6758 6.16761 16.6841 6.16761V6.99314C16.6841 7.29138 16.8867 7.44957 17.0482 7.57645C17.1273 7.63741 17.1998 7.69508 17.2443 7.761C17.2871 7.82361 17.3069 7.89446 17.3053 7.97191V7.98344C17.3069 8.06089 17.2871 8.13174 17.2443 8.19436C17.1998 8.25862 17.1273 8.31629 17.0482 8.3789C16.8851 8.50578 16.6841 8.66397 16.6841 8.96221V12.5214C16.6841 12.8196 16.8867 12.9778 17.0482 13.1047C17.1273 13.1656 17.1998 13.2233 17.2443 13.2892C17.2871 13.3518 17.3069 13.4227 17.3053 13.5001V13.5117L17.3036 13.5051Z" fill="#011F5B"/>
<path d="M57.6916 12.8147C57.5482 12.7026 57.4658 12.6334 57.4658 12.5181V8.95891C57.4658 8.84357 57.5466 8.77437 57.6916 8.66232C57.7838 8.58982 57.8893 8.50743 57.9651 8.39538C58.0491 8.2718 58.092 8.1268 58.087 7.97685C58.0903 7.82691 58.0475 7.6819 57.9651 7.55832C57.8893 7.44627 57.7838 7.36389 57.6916 7.29138C57.5482 7.17934 57.4658 7.11013 57.4658 6.99479V5.75403H57.1841C56.525 5.75403 55.8164 5.74579 55.3583 5.54971C55.1787 5.47391 55.009 5.36681 54.8311 5.25311C54.4224 4.99606 53.961 4.70605 53.2575 4.70605C52.6989 4.70605 52.1881 4.91202 51.7382 5.09328C51.4367 5.21521 51.1516 5.32891 50.9555 5.32891H50.8682C50.6705 5.32891 50.3871 5.21356 50.0855 5.09328C49.6357 4.91202 49.1265 4.70605 48.5663 4.70605C47.8627 4.70605 47.4013 4.99771 46.9927 5.25311C46.8131 5.36681 46.6434 5.47226 46.4654 5.54971C46.0057 5.74579 45.2988 5.75403 44.6397 5.75403H44.3579V6.99479C44.3579 7.11013 44.2772 7.17934 44.1322 7.29138C44.0399 7.36389 43.9344 7.44627 43.8586 7.55832C43.7746 7.6819 43.7318 7.82691 43.7367 7.97685C43.7334 8.1268 43.7763 8.2718 43.8586 8.39538C43.9344 8.50743 44.0399 8.58982 44.1322 8.66232C44.2755 8.77437 44.3579 8.84357 44.3579 8.95891V12.5181C44.3579 12.6334 44.2772 12.7026 44.1322 12.8147C44.0399 12.8872 43.9344 12.9696 43.8586 13.0816C43.7746 13.2052 43.7318 13.3502 43.7367 13.5001C43.7334 13.6501 43.7763 13.7951 43.8586 13.9187C43.9344 14.0307 44.0399 14.1131 44.1322 14.1856C44.2755 14.2976 44.3579 14.3669 44.3579 14.4822V15.6735L44.348 15.69H57.4774L57.4675 15.6735V14.4822C57.4675 14.3669 57.5482 14.2976 57.6932 14.1856C57.7855 14.1131 57.8909 14.0307 57.9667 13.9187C58.0508 13.7951 58.0936 13.6501 58.0887 13.5001C58.092 13.3502 58.0491 13.2052 57.9667 13.0816C57.8909 12.9696 57.7855 12.8872 57.6932 12.8147H57.6916ZM51.8931 5.47556C52.3083 5.30913 52.778 5.11964 53.2575 5.11964C53.8408 5.11964 54.2148 5.35527 54.6103 5.60408C54.7948 5.72107 54.9876 5.84136 55.1969 5.93034C55.3682 6.00284 55.5511 6.05392 55.7456 6.08852V13.6451C55.4358 13.5973 55.0996 13.5957 54.7437 13.5957C54.2016 13.5941 53.6397 13.5924 53.0993 13.4276C52.9147 13.3716 52.7302 13.3123 52.5489 13.2546C51.9887 13.075 51.4993 12.9201 51.1533 12.8888C51.1467 12.8888 51.1384 12.8872 51.1318 12.8855V5.72437C51.3625 5.68812 51.613 5.5876 51.8948 5.47391L51.8931 5.47556ZM46.6269 5.92869C46.8361 5.83971 47.0273 5.71943 47.2135 5.60243C47.6089 5.35362 47.983 5.11799 48.5663 5.11799C49.0441 5.11799 49.5154 5.30749 49.9306 5.47391C50.2223 5.5909 50.4793 5.69471 50.7166 5.72766V12.8822C50.7018 12.8822 50.687 12.8855 50.6738 12.8872C50.3277 12.9185 49.84 13.075 49.2781 13.253C49.0969 13.3106 48.9123 13.37 48.7278 13.426C48.1873 13.5891 47.6254 13.5908 47.0833 13.5941C46.729 13.5941 46.3913 13.5957 46.0815 13.6435V6.08687C46.2743 6.05227 46.4572 6.00119 46.6269 5.92869ZM57.7245 13.5051C57.7262 13.5825 57.7064 13.6534 57.6636 13.716C57.6191 13.7802 57.5466 13.8379 57.4675 13.9005C57.3043 14.0274 57.1033 14.1856 57.1033 14.4838V15.2764H44.7188V14.4838C44.7188 14.1856 44.5161 14.0274 44.3546 13.9005C44.2755 13.8396 44.203 13.7819 44.1585 13.716C44.1157 13.6534 44.0959 13.5825 44.0976 13.5051V13.4935C44.0959 13.4161 44.1157 13.3452 44.1585 13.2826C44.203 13.2184 44.2755 13.1607 44.3546 13.0981C44.5177 12.9712 44.7188 12.813 44.7188 12.5148V8.95562C44.7188 8.65737 44.5161 8.49919 44.3546 8.37231C44.2755 8.31135 44.203 8.25367 44.1585 8.18776C44.1157 8.12515 44.0959 8.0543 44.0976 7.97685V7.96532C44.0959 7.88787 44.1157 7.81702 44.1585 7.7544C44.203 7.69014 44.2755 7.63247 44.3546 7.56986C44.5177 7.44298 44.7188 7.28479 44.7188 6.98655V6.16102C44.727 6.16102 44.7353 6.16102 44.7451 6.16102C45.0681 6.16102 45.3812 6.15773 45.6778 6.13301V14.3141H50.186C50.2717 14.6371 50.565 14.876 50.9143 14.876C51.2637 14.876 51.557 14.6371 51.6427 14.3141H56.1509V6.1396C56.4459 6.16432 56.7589 6.16761 57.0786 6.16761C57.0885 6.16761 57.0967 6.16761 57.105 6.16761V6.99314C57.105 7.29138 57.3076 7.44957 57.4691 7.57645C57.5482 7.63741 57.6207 7.69508 57.6652 7.761C57.708 7.82361 57.7278 7.89446 57.7262 7.97191V7.98344C57.7278 8.06089 57.708 8.13174 57.6652 8.19436C57.6207 8.25862 57.5482 8.31629 57.4691 8.3789C57.306 8.50578 57.105 8.66397 57.105 8.96221V12.5214C57.105 12.8196 57.3076 12.9778 57.4691 13.1047C57.5482 13.1656 57.6207 13.2233 57.6652 13.2892C57.708 13.3518 57.7278 13.4227 57.7262 13.5001V13.5117L57.7245 13.5051Z" fill="#004784"/>
<path d="M60.2338 1.2572H1.16667C1.16667 1.2572 1.16667 30.3137 1.16667 30.701C1.12712 43.6013 8.3064 52.9737 14.3372 58.5645C20.9117 64.6596 28.3151 68.2879 30.6401 68.7955L30.6994 68.8086L30.7587 68.7955C33.0854 68.2896 40.4887 64.6596 47.0616 58.5645C53.0908 52.9737 60.2717 43.6013 60.2322 30.701C60.2322 30.3137 60.2322 1.2572 60.2322 1.2572H60.2338ZM59.4132 2.07778C59.4132 3.95952 59.4132 11.9413 59.4132 19.0002H1.98725C1.98725 11.9413 1.98725 3.95788 1.98725 2.07778H59.4132ZM13.3815 47.7042C11.4058 45.7285 11.4058 42.5253 13.3815 40.5496C15.3571 38.5739 18.5604 38.5739 20.536 40.5496C22.5117 42.5253 22.5117 45.7285 20.536 47.7042C18.5604 49.6798 15.3571 49.6798 13.3815 47.7042ZM46.5063 57.9647C39.6764 64.2971 32.596 67.4888 30.7011 67.9683C28.8045 67.4888 21.7257 64.2987 14.8958 57.9647C14.7294 57.8115 14.5629 57.6533 14.3949 57.4935L30.7011 40.1805L47.0073 57.4935C46.8392 57.6533 46.6728 57.8115 46.5063 57.9647ZM25.6424 31.5759C25.6424 28.783 27.9065 26.5173 30.7011 26.5173C33.4957 26.5173 35.7597 28.7813 35.7597 31.5759C35.7597 34.3705 33.4957 36.6345 30.7011 36.6345C27.9065 36.6345 25.6424 34.3705 25.6424 31.5759ZM48.019 47.7042C46.0433 49.6798 42.8401 49.6798 40.8644 47.7042C38.8888 45.7285 38.8888 42.5253 40.8644 40.5496C42.8401 38.5739 46.0433 38.5739 48.019 40.5496C49.9946 42.5253 49.9946 45.7285 48.019 47.7042ZM56.1408 45.1436L30.6994 20.6068L5.25805 45.1436C3.28239 40.9896 1.96912 36.1682 1.9856 30.7043C1.9856 30.5428 1.9856 25.5913 1.9856 19.8208H59.4132C59.4132 25.5913 59.4132 30.5444 59.4132 30.7043C59.4297 36.1699 58.1164 40.9896 56.1408 45.1436Z" fill="#011F5B"/>
<path d="M72.7571 61.8831C72.7571 63.984 73.3272 65.5906 75.5632 65.5906C77.6196 65.5906 78.7005 64.2097 78.7005 61.8073V57.6352C78.7005 57.3205 78.6412 57.0651 78.6099 56.8245C78.5341 56.284 78.0249 56.0748 77.3197 55.999V55.6085H80.8624V55.999C80.1423 56.0748 79.6463 56.284 79.5722 56.8245C79.5425 57.0651 79.4816 57.3205 79.4816 57.6352V61.8683C79.4816 65.0962 77.4252 66.2958 75.489 66.2958C72.2924 66.2958 71.3004 64.6744 71.3004 61.9573V57.4836C71.3004 56.088 71.3598 56.1621 70.0103 55.9973V55.6068H74.0473V55.9973C72.6961 56.1621 72.7571 56.088 72.7571 57.4836V61.8815V61.8831Z" fill="#111110"/>
<path d="M88.7606 66.1161C87.0898 64.1405 85.3564 62.0709 83.6443 60.054V64.6991C83.6443 64.9199 83.6872 65.0978 83.707 65.2659C83.7597 65.6449 84.1172 65.7915 84.8109 65.8443V66.1178H82.2371V65.8443C82.7414 65.7915 83.089 65.6449 83.1401 65.2659C83.1615 65.0978 83.2027 64.9199 83.2027 64.6991V59.7509C82.9078 59.3719 82.5832 59.0357 81.9834 59.0357V58.7622H83.8964C85.4618 60.6637 87.0898 62.5965 88.6568 64.4997H88.6782V60.1809C88.6782 59.9601 88.6354 59.7822 88.6156 59.6141C88.5629 59.2351 88.2053 59.0885 87.5116 59.0357V58.7622H90.0854V59.0357C89.5911 59.0885 89.2335 59.2351 89.1824 59.6141C89.161 59.7822 89.1198 59.9601 89.1198 60.1809V66.1178H88.7623L88.7606 66.1161Z" fill="#111110"/>
<path d="M94.0347 64.8029C94.0347 65.78 93.9935 65.7273 94.9377 65.8426V66.1161H92.1118V65.8426C93.0576 65.7273 93.0148 65.78 93.0148 64.8029V60.0755C93.0148 59.0983 93.056 59.1511 92.1118 59.0357V58.7622H94.9377V59.0357C93.9919 59.1511 94.0347 59.0983 94.0347 60.0755V64.8029Z" fill="#111110"/>
<path d="M99.8242 59.0341C99.2458 59.0341 98.8257 59.2022 99.1733 60.2106C99.5836 61.4497 100.193 63.2573 100.739 64.8556C101.411 63.2474 102.052 61.6293 102.703 60.0227C102.965 59.3603 102.693 59.0357 101.978 59.0357V58.7622H104.247V59.0357C103.942 59.0357 103.596 59.1412 103.375 59.6668C102.492 61.8204 101.599 63.9642 100.717 66.1178H100.182C99.5408 64.3003 98.8257 62.2719 98.1847 60.4858C97.7958 59.362 97.4695 59.0357 96.9653 59.0357V58.7622H99.8225V59.0357L99.8242 59.0341Z" fill="#111110"/>
<path d="M106.276 65.8426C107.222 65.7273 107.179 65.78 107.179 64.8029V60.0755C107.179 59.0983 107.22 59.1511 106.276 59.0357V58.7622H110.972V60.4545H110.698C110.593 59.6767 110.384 59.0984 109.627 59.0984H108.199V62.1039H109.082C109.744 62.1039 110.028 61.8419 110.049 61.1894H110.323V63.427H110.049C110.028 62.8074 109.787 62.44 109.082 62.44H108.199V64.8144C108.199 65.7075 108.609 65.7817 109.555 65.7817C111.079 65.7817 111.005 65.3516 111.488 64.2262H111.761L111.447 66.1178H106.278V65.8443L106.276 65.8426Z" fill="#111110"/>
<path d="M113.776 58.7606H116.835C117.896 58.7606 118.957 59.3176 118.957 60.5468C118.957 61.6294 118.295 62.3758 117.485 62.6905L118.515 64.2559C119.041 65.0221 119.629 65.7586 119.997 65.9794V66.1162H118.914C118.295 66.1162 117.958 64.971 116.686 62.8586H115.699V64.8029C115.699 65.7801 115.658 65.7273 116.602 65.8427V66.1162H113.776V65.8427C114.722 65.7273 114.679 65.7801 114.679 64.8029V60.0755C114.679 59.0984 114.721 59.1511 113.776 59.0358V58.7623V58.7606ZM115.699 62.5225H116.571C117.485 62.5225 117.906 61.8287 117.906 60.6424C117.906 59.456 117.275 59.0984 116.508 59.0984H115.699V62.5241V62.5225Z" fill="#111110"/>
<path d="M125.503 60.326C125.419 59.5911 125.021 59.0029 124.18 59.0029C123.571 59.0029 123.025 59.3176 123.025 60.0953C123.025 60.8302 123.76 61.2718 124.811 62.0595C125.925 62.8899 126.283 63.4255 126.283 64.2971C126.283 65.5478 125.001 66.2415 123.74 66.2415C123.068 66.2415 122.49 66.1146 121.944 65.9053C121.903 65.8839 121.87 65.8427 121.87 65.7587V64.246H122.144C122.259 65.4127 123.027 65.874 123.836 65.874C124.582 65.874 125.192 65.3072 125.192 64.5393C125.192 63.8555 124.825 63.3002 123.248 62.2589C122.681 61.8799 121.976 61.4712 121.976 60.326C121.976 59.3802 123.027 58.6338 124.235 58.6338C124.686 58.6338 125.286 58.6865 125.706 58.8332C125.769 58.8546 125.78 58.8958 125.78 58.9485V60.3244H125.507L125.503 60.326Z" fill="#111110"/>
<path d="M130.504 64.8029C130.504 65.78 130.463 65.7273 131.407 65.8426V66.1161H128.582V65.8426C129.527 65.7273 129.485 65.78 129.485 64.8029V60.0755C129.485 59.0983 129.526 59.1511 128.582 59.0357V58.7622H131.407V59.0357C130.462 59.1511 130.504 59.0983 130.504 60.0755V64.8029Z" fill="#111110"/>
<path d="M137.008 64.8029C137.008 65.7801 136.967 65.7273 137.911 65.8427V66.1162H135.085V65.8427C136.031 65.7273 135.988 65.7801 135.988 64.8029V59.0968H135.042C134.128 59.0968 133.918 59.6751 133.571 60.3688H133.309L133.592 58.7606H139.402L139.685 60.3688H139.423C139.077 59.6751 138.866 59.0968 137.952 59.0968H137.006V64.8029H137.008Z" fill="#111110"/>
<path d="M143.154 65.8427C144.1 65.7273 144.057 65.7801 144.057 64.8029V63.1848L142.439 59.98C142.093 59.2978 141.798 59.0341 141.315 59.0341V58.7606H143.994V59.0341C143.195 59.0341 143.269 59.4329 143.531 59.98L144.803 62.618L146.253 59.98C146.611 59.339 146.275 59.0341 145.655 59.0341V58.7606H147.82V59.0341C147.525 59.0341 147.242 59.1709 146.959 59.6751L145.204 62.8586C145.098 63.0695 145.077 63.3628 145.077 63.6248V64.8013C145.077 65.7784 145.036 65.7257 145.98 65.841V66.1146H143.154V65.841V65.8427Z" fill="#111110"/>
<path d="M155.397 63.2837C155.397 61.2784 157.127 58.2778 159.683 58.2778C161.719 58.2778 162.163 59.6554 162.163 61.0329C162.163 62.7169 160.816 66.2991 157.892 66.2991C155.932 66.2991 155.397 64.7222 155.397 63.2837ZM160.754 60.2996C160.754 58.7079 159.79 58.6469 159.544 58.6469C157.892 58.6469 156.804 61.6162 156.804 63.6067C156.804 64.4025 156.943 65.841 158.075 65.841C159.82 65.841 160.754 62.9641 160.754 60.2996Z" fill="#111110"/>
<path d="M170.735 58.7837L170.367 59.105H168.362C167.612 62.7482 166.388 67.6009 165.514 69.9275H164.826L167.014 59.105H165.559L165.697 58.4624H167.136C167.947 55.2015 170.641 54.8654 171.283 54.8654C171.636 54.8654 172.371 54.9263 172.6 55.1405L172.417 56.1506L172.035 56.3335C171.82 55.9199 171.331 55.4454 170.688 55.4454C169.771 55.4454 169.082 56.0732 168.714 57.7259L168.546 58.4608H170.797L170.736 58.7821L170.735 58.7837Z" fill="#111110"/>
<path d="M180.696 64.2395C180.696 65.6351 180.636 65.561 181.986 65.7257V66.1163H177.949V65.7257C179.3 65.561 179.239 65.6351 179.239 64.2395V57.4853C179.239 56.0897 179.298 56.1638 177.949 55.999V55.6085H181.882C184.373 55.6085 185.604 56.5988 185.604 58.3998C185.604 60.5617 183.653 61.7316 181.356 61.5965V61.2966C183.233 61.3262 184.103 60.2008 184.103 58.5498C184.103 56.8987 183.292 56.088 181.612 56.088H180.696V64.2378V64.2395Z" fill="#111110"/>
<path d="M188.486 65.8426C189.432 65.7273 189.389 65.78 189.389 64.8029V60.0755C189.389 59.0983 189.43 59.1511 188.486 59.0357V58.7622H193.182V60.4545H192.909C192.803 59.6767 192.594 59.0984 191.838 59.0984H190.409V62.1039H191.292C191.955 62.1039 192.238 61.8419 192.26 61.1894H192.533V63.427H192.26C192.238 62.8074 191.998 62.44 191.292 62.44H190.409V64.8144C190.409 65.7075 190.82 65.7817 191.765 65.7817C193.29 65.7817 193.215 65.3516 193.698 64.2262H193.972L193.657 66.1178H188.488V65.8443L188.486 65.8426Z" fill="#111110"/>
<path d="M202.458 66.1161C200.788 64.1405 199.054 62.0709 197.342 60.054V64.6991C197.342 64.9199 197.385 65.0978 197.405 65.2659C197.457 65.6449 197.815 65.7915 198.509 65.8443V66.1178H195.935V65.8443C196.439 65.7915 196.787 65.6449 196.838 65.2659C196.859 65.0978 196.9 64.9199 196.9 64.6991V59.7509C196.606 59.3719 196.281 59.0357 195.681 59.0357V58.7622H197.594C199.16 60.6637 200.788 62.5965 202.355 64.4997H202.376V60.1809C202.376 59.9601 202.333 59.7822 202.313 59.6141C202.261 59.2351 201.903 59.0885 201.209 59.0357V58.7622H203.783V59.0357C203.289 59.0885 202.931 59.2351 202.88 59.6141C202.859 59.7822 202.818 59.9601 202.818 60.1809V66.1178H202.46L202.458 66.1161Z" fill="#111110"/>
<path d="M212.283 66.1163C210.612 64.1406 208.878 62.071 207.166 60.0542V64.6992C207.166 64.92 207.209 65.098 207.229 65.266C207.282 65.645 207.639 65.7917 208.333 65.8444V66.1179H205.759V65.8444C206.263 65.7917 206.611 65.645 206.662 65.266C206.684 65.098 206.725 64.92 206.725 64.6992V59.751C206.43 59.372 206.105 59.0359 205.505 59.0359V58.7623H207.418C208.984 60.6638 210.612 62.5967 212.179 64.4998H212.2V60.1811C212.2 59.9603 212.157 59.7823 212.138 59.6142C212.085 59.2352 211.727 59.0886 211.034 59.0359V58.7623H213.607V59.0359C213.113 59.0886 212.755 59.2352 212.704 59.6142C212.683 59.7823 212.642 59.9603 212.642 60.1811V66.1179H212.284L212.283 66.1163Z" fill="#111110"/>
<path d="M219.27 60.326C219.186 59.5911 218.788 59.0029 217.947 59.0029C217.338 59.0029 216.792 59.3176 216.792 60.0953C216.792 60.8302 217.527 61.2718 218.578 62.0595C219.692 62.8899 220.05 63.4255 220.05 64.2971C220.05 65.5478 218.768 66.2415 217.507 66.2415C216.835 66.2415 216.257 66.1146 215.711 65.9053C215.67 65.8839 215.637 65.8427 215.637 65.7587V64.246H215.911C216.026 65.4127 216.794 65.874 217.603 65.874C218.349 65.874 218.959 65.3072 218.959 64.5393C218.959 63.8555 218.592 63.3002 217.015 62.2589C216.448 61.8799 215.743 61.4712 215.743 60.326C215.743 59.3802 216.794 58.6338 218.002 58.6338C218.453 58.6338 219.053 58.6865 219.473 58.8332C219.536 58.8546 219.547 58.8958 219.547 58.9485V60.3244H219.274L219.27 60.326Z" fill="#111110"/>
<path d="M223.914 65.8427C224.859 65.7273 224.817 65.7801 224.817 64.8029V63.1848L223.198 59.98C222.852 59.2978 222.557 59.0341 222.075 59.0341V58.7606H224.754V59.0341C223.955 59.0341 224.029 59.4329 224.291 59.98L225.563 62.618L227.013 59.98C227.371 59.339 227.034 59.0341 226.415 59.0341V58.7606H228.58V59.0341C228.285 59.0341 228.002 59.1709 227.718 59.6751L225.963 62.8586C225.858 63.0695 225.837 63.3628 225.837 63.6248V64.8013C225.837 65.7784 225.794 65.7257 226.74 65.841V66.1146H223.914V65.841V65.8427Z" fill="#111110"/>
<path d="M230.607 65.8427C231.553 65.7274 231.51 65.7801 231.51 64.803V60.0756C231.51 59.0985 231.552 59.1512 230.607 59.0359V58.7623H233.433V59.0359C232.488 59.1512 232.53 59.0985 232.53 60.0756V64.9711C232.53 65.706 232.941 65.7801 233.875 65.7801C235.399 65.7801 235.335 65.3501 235.819 64.2246H236.081L235.767 66.1163H230.607V65.8427Z" fill="#111110"/>
<path d="M239.8 59.0341C239.222 59.0341 238.802 59.2022 239.149 60.2106C239.56 61.4497 240.169 63.2573 240.715 64.8556C241.387 63.2474 242.028 61.6293 242.679 60.0227C242.941 59.3603 242.669 59.0357 241.954 59.0357V58.7622H244.223V59.0357C243.918 59.0357 243.572 59.1412 243.351 59.6668C242.468 61.8204 241.575 63.9642 240.693 66.1178H240.158C239.517 64.3003 238.802 62.2719 238.161 60.4858C237.772 59.362 237.446 59.0357 236.941 59.0357V58.7622H239.799V59.0357L239.8 59.0341Z" fill="#111110"/>
<path d="M246.798 63.6775L246.316 65.0847C246.179 65.495 246.378 65.841 246.841 65.841V66.1145H244.928V65.841C245.212 65.841 245.516 65.6631 245.685 65.3154C246.136 64.391 247.365 60.9554 248.239 58.6321H248.827C249.542 60.7445 250.613 63.9807 250.971 64.915C251.201 65.5032 251.369 65.8394 251.822 65.8394V66.1129H249.374V65.8394C250.036 65.8394 250.099 65.4933 249.931 65.0303L249.479 63.6742H246.8L246.798 63.6775ZM249.341 63.2788L248.227 59.8646H248.206L246.955 63.2788H249.341Z" fill="#111110"/>
<path d="M260.32 66.1161C258.649 64.1405 256.915 62.0709 255.203 60.054V64.6991C255.203 64.9199 255.246 65.0978 255.266 65.2659C255.319 65.6449 255.676 65.7915 256.37 65.8443V66.1178H253.796V65.8443C254.3 65.7915 254.648 65.6449 254.699 65.2659C254.721 65.0978 254.762 64.9199 254.762 64.6991V59.7509C254.467 59.3719 254.142 59.0357 253.542 59.0357V58.7622H255.456C257.021 60.6637 258.651 62.5965 260.216 64.4997H260.237V60.1809C260.237 59.9601 260.196 59.7822 260.175 59.6141C260.122 59.2351 259.764 59.0885 259.071 59.0357V58.7622H261.645V59.0357C261.15 59.0885 260.793 59.2351 260.742 59.6141C260.72 59.7822 260.679 59.9601 260.679 60.1809V66.1178H260.321L260.32 66.1161Z" fill="#111110"/>
<path d="M265.594 64.803C265.594 65.7801 265.553 65.7274 266.497 65.8427V66.1163H263.671V65.8427C264.617 65.7274 264.574 65.7801 264.574 64.803V60.0756C264.574 59.0985 264.617 59.1512 263.671 59.0359V58.7623H266.497V59.0359C265.551 59.1512 265.594 59.0985 265.594 60.0756V64.803Z" fill="#111110"/>
<path d="M270.396 63.6775L269.913 65.0847C269.777 65.495 269.976 65.841 270.439 65.841V66.1145H268.526V65.841C268.809 65.841 269.114 65.6631 269.282 65.3154C269.734 64.391 270.963 60.9554 271.836 58.6321H272.424C273.14 60.7445 274.211 63.9807 274.568 64.915C274.799 65.5032 274.967 65.8394 275.42 65.8394V66.1129H272.972V65.8394C273.634 65.8394 273.697 65.4933 273.528 65.0303L273.077 63.6742H270.398L270.396 63.6775ZM272.939 63.2788L271.825 59.8646H271.803L270.553 63.2788H272.939Z" fill="#111110"/>
<path d="M72.7571 61.8831C72.7571 63.984 73.3272 65.5906 75.5632 65.5906C77.6196 65.5906 78.7005 64.2097 78.7005 61.8073V57.6352C78.7005 57.3205 78.6412 57.0651 78.6099 56.8245C78.5341 56.284 78.0249 56.0748 77.3197 55.999V55.6085H80.8624V55.999C80.1423 56.0748 79.6463 56.284 79.5722 56.8245C79.5425 57.0651 79.4816 57.3205 79.4816 57.6352V61.8683C79.4816 65.0962 77.4252 66.2958 75.489 66.2958C72.2924 66.2958 71.3004 64.6744 71.3004 61.9573V57.4836C71.3004 56.088 71.3598 56.1621 70.0103 55.9973V55.6068H74.0473V55.9973C72.6961 56.1621 72.7571 56.088 72.7571 57.4836V61.8815V61.8831Z" fill="#111110"/>
<path d="M88.7606 66.1161C87.0898 64.1405 85.3564 62.0709 83.6443 60.054V64.6991C83.6443 64.9199 83.6872 65.0978 83.707 65.2659C83.7597 65.6449 84.1172 65.7915 84.8109 65.8443V66.1178H82.2371V65.8443C82.7414 65.7915 83.089 65.6449 83.1401 65.2659C83.1615 65.0978 83.2027 64.9199 83.2027 64.6991V59.7509C82.9078 59.3719 82.5832 59.0357 81.9834 59.0357V58.7622H83.8964C85.4618 60.6637 87.0898 62.5965 88.6568 64.4997H88.6782V60.1809C88.6782 59.9601 88.6354 59.7822 88.6156 59.6141C88.5629 59.2351 88.2053 59.0885 87.5116 59.0357V58.7622H90.0854V59.0357C89.5911 59.0885 89.2335 59.2351 89.1824 59.6141C89.161 59.7822 89.1198 59.9601 89.1198 60.1809V66.1178H88.7623L88.7606 66.1161Z" fill="#111110"/>
<path d="M94.0347 64.8029C94.0347 65.78 93.9935 65.7273 94.9377 65.8426V66.1161H92.1118V65.8426C93.0576 65.7273 93.0148 65.78 93.0148 64.8029V60.0755C93.0148 59.0983 93.056 59.1511 92.1118 59.0357V58.7622H94.9377V59.0357C93.9919 59.1511 94.0347 59.0983 94.0347 60.0755V64.8029Z" fill="#111110"/>
<path d="M99.8242 59.0341C99.2458 59.0341 98.8257 59.2022 99.1733 60.2106C99.5836 61.4497 100.193 63.2573 100.739 64.8556C101.411 63.2474 102.052 61.6293 102.703 60.0227C102.965 59.3603 102.693 59.0357 101.978 59.0357V58.7622H104.247V59.0357C103.942 59.0357 103.596 59.1412 103.375 59.6668C102.492 61.8204 101.599 63.9642 100.717 66.1178H100.182C99.5408 64.3003 98.8257 62.2719 98.1847 60.4858C97.7958 59.362 97.4695 59.0357 96.9653 59.0357V58.7622H99.8225V59.0357L99.8242 59.0341Z" fill="#111110"/>
<path d="M106.276 65.8426C107.222 65.7273 107.179 65.78 107.179 64.8029V60.0755C107.179 59.0983 107.22 59.1511 106.276 59.0357V58.7622H110.972V60.4545H110.698C110.593 59.6767 110.384 59.0984 109.627 59.0984H108.199V62.1039H109.082C109.744 62.1039 110.028 61.8419 110.049 61.1894H110.323V63.427H110.049C110.028 62.8074 109.787 62.44 109.082 62.44H108.199V64.8144C108.199 65.7075 108.609 65.7817 109.555 65.7817C111.079 65.7817 111.005 65.3516 111.488 64.2262H111.761L111.447 66.1178H106.278V65.8443L106.276 65.8426Z" fill="#111110"/>
<path d="M113.776 58.7606H116.835C117.896 58.7606 118.957 59.3176 118.957 60.5468C118.957 61.6294 118.295 62.3758 117.485 62.6905L118.515 64.2559C119.041 65.0221 119.629 65.7586 119.997 65.9794V66.1162H118.914C118.295 66.1162 117.958 64.971 116.686 62.8586H115.699V64.8029C115.699 65.7801 115.658 65.7273 116.602 65.8427V66.1162H113.776V65.8427C114.722 65.7273 114.679 65.7801 114.679 64.8029V60.0755C114.679 59.0984 114.721 59.1511 113.776 59.0358V58.7623V58.7606ZM115.699 62.5225H116.571C117.485 62.5225 117.906 61.8287 117.906 60.6424C117.906 59.456 117.275 59.0984 116.508 59.0984H115.699V62.5241V62.5225Z" fill="#111110"/>
<path d="M125.503 60.326C125.419 59.5911 125.021 59.0029 124.18 59.0029C123.571 59.0029 123.025 59.3176 123.025 60.0953C123.025 60.8302 123.76 61.2718 124.811 62.0595C125.925 62.8899 126.283 63.4255 126.283 64.2971C126.283 65.5478 125.001 66.2415 123.74 66.2415C123.068 66.2415 122.49 66.1146 121.944 65.9053C121.903 65.8839 121.87 65.8427 121.87 65.7587V64.246H122.144C122.259 65.4127 123.027 65.874 123.836 65.874C124.582 65.874 125.192 65.3072 125.192 64.5393C125.192 63.8555 124.825 63.3002 123.248 62.2589C122.681 61.8799 121.976 61.4712 121.976 60.326C121.976 59.3802 123.027 58.6338 124.235 58.6338C124.686 58.6338 125.286 58.6865 125.706 58.8332C125.769 58.8546 125.78 58.8958 125.78 58.9485V60.3244H125.507L125.503 60.326Z" fill="#111110"/>
<path d="M130.504 64.8029C130.504 65.78 130.463 65.7273 131.407 65.8426V66.1161H128.582V65.8426C129.527 65.7273 129.485 65.78 129.485 64.8029V60.0755C129.485 59.0983 129.526 59.1511 128.582 59.0357V58.7622H131.407V59.0357C130.462 59.1511 130.504 59.0983 130.504 60.0755V64.8029Z" fill="#111110"/>
<path d="M137.008 64.8029C137.008 65.7801 136.967 65.7273 137.911 65.8427V66.1162H135.085V65.8427C136.031 65.7273 135.988 65.7801 135.988 64.8029V59.0968H135.042C134.128 59.0968 133.918 59.6751 133.571 60.3688H133.309L133.592 58.7606H139.402L139.685 60.3688H139.423C139.077 59.6751 138.866 59.0968 137.952 59.0968H137.006V64.8029H137.008Z" fill="#111110"/>
<path d="M143.154 65.8427C144.1 65.7273 144.057 65.7801 144.057 64.8029V63.1848L142.439 59.98C142.093 59.2978 141.798 59.0341 141.315 59.0341V58.7606H143.994V59.0341C143.195 59.0341 143.269 59.4329 143.531 59.98L144.803 62.618L146.253 59.98C146.611 59.339 146.275 59.0341 145.655 59.0341V58.7606H147.82V59.0341C147.525 59.0341 147.242 59.1709 146.959 59.6751L145.204 62.8586C145.098 63.0695 145.077 63.3628 145.077 63.6248V64.8013C145.077 65.7784 145.036 65.7257 145.98 65.841V66.1146H143.154V65.841V65.8427Z" fill="#111110"/>
<path d="M155.397 63.2837C155.397 61.2784 157.127 58.2778 159.683 58.2778C161.719 58.2778 162.163 59.6554 162.163 61.0329C162.163 62.7169 160.816 66.2991 157.892 66.2991C155.932 66.2991 155.397 64.7222 155.397 63.2837ZM160.754 60.2996C160.754 58.7079 159.79 58.6469 159.544 58.6469C157.892 58.6469 156.804 61.6162 156.804 63.6067C156.804 64.4025 156.943 65.841 158.075 65.841C159.82 65.841 160.754 62.9641 160.754 60.2996Z" fill="#111110"/>
<path d="M170.735 58.7837L170.367 59.105H168.362C167.612 62.7482 166.388 67.6009 165.514 69.9275H164.826L167.014 59.105H165.559L165.697 58.4624H167.136C167.947 55.2015 170.641 54.8654 171.283 54.8654C171.636 54.8654 172.371 54.9263 172.6 55.1405L172.417 56.1506L172.035 56.3335C171.82 55.9199 171.331 55.4454 170.688 55.4454C169.771 55.4454 169.082 56.0732 168.714 57.7259L168.546 58.4608H170.797L170.736 58.7821L170.735 58.7837Z" fill="#111110"/>
<path d="M180.696 64.2395C180.696 65.6351 180.636 65.561 181.986 65.7257V66.1163H177.949V65.7257C179.3 65.561 179.239 65.6351 179.239 64.2395V57.4853C179.239 56.0897 179.298 56.1638 177.949 55.999V55.6085H181.882C184.373 55.6085 185.604 56.5988 185.604 58.3998C185.604 60.5617 183.653 61.7316 181.356 61.5965V61.2966C183.233 61.3262 184.103 60.2008 184.103 58.5498C184.103 56.8987 183.292 56.088 181.612 56.088H180.696V64.2378V64.2395Z" fill="#111110"/>
<path d="M188.486 65.8426C189.432 65.7273 189.389 65.78 189.389 64.8029V60.0755C189.389 59.0983 189.43 59.1511 188.486 59.0357V58.7622H193.182V60.4545H192.909C192.803 59.6767 192.594 59.0984 191.838 59.0984H190.409V62.1039H191.292C191.955 62.1039 192.238 61.8419 192.26 61.1894H192.533V63.427H192.26C192.238 62.8074 191.998 62.44 191.292 62.44H190.409V64.8144C190.409 65.7075 190.82 65.7817 191.765 65.7817C193.29 65.7817 193.215 65.3516 193.698 64.2262H193.972L193.657 66.1178H188.488V65.8443L188.486 65.8426Z" fill="#111110"/>
<path d="M202.458 66.1161C200.788 64.1405 199.054 62.0709 197.342 60.054V64.6991C197.342 64.9199 197.385 65.0978 197.405 65.2659C197.457 65.6449 197.815 65.7915 198.509 65.8443V66.1178H195.935V65.8443C196.439 65.7915 196.787 65.6449 196.838 65.2659C196.859 65.0978 196.9 64.9199 196.9 64.6991V59.7509C196.606 59.3719 196.281 59.0357 195.681 59.0357V58.7622H197.594C199.16 60.6637 200.788 62.5965 202.355 64.4997H202.376V60.1809C202.376 59.9601 202.333 59.7822 202.313 59.6141C202.261 59.2351 201.903 59.0885 201.209 59.0357V58.7622H203.783V59.0357C203.289 59.0885 202.931 59.2351 202.88 59.6141C202.859 59.7822 202.818 59.9601 202.818 60.1809V66.1178H202.46L202.458 66.1161Z" fill="#111110"/>
<path d="M212.283 66.1163C210.612 64.1406 208.878 62.071 207.166 60.0542V64.6992C207.166 64.92 207.209 65.098 207.229 65.266C207.282 65.645 207.639 65.7917 208.333 65.8444V66.1179H205.759V65.8444C206.263 65.7917 206.611 65.645 206.662 65.266C206.684 65.098 206.725 64.92 206.725 64.6992V59.751C206.43 59.372 206.105 59.0359 205.505 59.0359V58.7623H207.418C208.984 60.6638 210.612 62.5967 212.179 64.4998H212.2V60.1811C212.2 59.9603 212.157 59.7823 212.138 59.6142C212.085 59.2352 211.727 59.0886 211.034 59.0359V58.7623H213.607V59.0359C213.113 59.0886 212.755 59.2352 212.704 59.6142C212.683 59.7823 212.642 59.9603 212.642 60.1811V66.1179H212.284L212.283 66.1163Z" fill="#111110"/>
<path d="M219.27 60.326C219.186 59.5911 218.788 59.0029 217.947 59.0029C217.338 59.0029 216.792 59.3176 216.792 60.0953C216.792 60.8302 217.527 61.2718 218.578 62.0595C219.692 62.8899 220.05 63.4255 220.05 64.2971C220.05 65.5478 218.768 66.2415 217.507 66.2415C216.835 66.2415 216.257 66.1146 215.711 65.9053C215.67 65.8839 215.637 65.8427 215.637 65.7587V64.246H215.911C216.026 65.4127 216.794 65.874 217.603 65.874C218.349 65.874 218.959 65.3072 218.959 64.5393C218.959 63.8555 218.592 63.3002 217.015 62.2589C216.448 61.8799 215.743 61.4712 215.743 60.326C215.743 59.3802 216.794 58.6338 218.002 58.6338C218.453 58.6338 219.053 58.6865 219.473 58.8332C219.536 58.8546 219.547 58.8958 219.547 58.9485V60.3244H219.274L219.27 60.326Z" fill="#111110"/>
<path d="M223.914 65.8427C224.859 65.7273 224.817 65.7801 224.817 64.8029V63.1848L223.198 59.98C222.852 59.2978 222.557 59.0341 222.075 59.0341V58.7606H224.754V59.0341C223.955 59.0341 224.029 59.4329 224.291 59.98L225.563 62.618L227.013 59.98C227.371 59.339 227.034 59.0341 226.415 59.0341V58.7606H228.58V59.0341C228.285 59.0341 228.002 59.1709 227.718 59.6751L225.963 62.8586C225.858 63.0695 225.837 63.3628 225.837 63.6248V64.8013C225.837 65.7784 225.794 65.7257 226.74 65.841V66.1146H223.914V65.841V65.8427Z" fill="#111110"/>
<path d="M230.607 65.8427C231.553 65.7274 231.51 65.7801 231.51 64.803V60.0756C231.51 59.0985 231.552 59.1512 230.607 59.0359V58.7623H233.433V59.0359C232.488 59.1512 232.53 59.0985 232.53 60.0756V64.9711C232.53 65.706 232.941 65.7801 233.875 65.7801C235.399 65.7801 235.335 65.3501 235.819 64.2246H236.081L235.767 66.1163H230.607V65.8427Z" fill="#111110"/>
<path d="M239.8 59.0341C239.222 59.0341 238.802 59.2022 239.149 60.2106C239.56 61.4497 240.169 63.2573 240.715 64.8556C241.387 63.2474 242.028 61.6293 242.679 60.0227C242.941 59.3603 242.669 59.0357 241.954 59.0357V58.7622H244.223V59.0357C243.918 59.0357 243.572 59.1412 243.351 59.6668C242.468 61.8204 241.575 63.9642 240.693 66.1178H240.158C239.517 64.3003 238.802 62.2719 238.161 60.4858C237.772 59.362 237.446 59.0357 236.941 59.0357V58.7622H239.799V59.0357L239.8 59.0341Z" fill="#111110"/>
<path d="M246.798 63.6775L246.316 65.0847C246.179 65.495 246.378 65.841 246.841 65.841V66.1145H244.928V65.841C245.212 65.841 245.516 65.6631 245.685 65.3154C246.136 64.391 247.365 60.9554 248.239 58.6321H248.827C249.542 60.7445 250.613 63.9807 250.971 64.915C251.201 65.5032 251.369 65.8394 251.822 65.8394V66.1129H249.374V65.8394C250.036 65.8394 250.099 65.4933 249.931 65.0303L249.479 63.6742H246.8L246.798 63.6775ZM249.341 63.2788L248.227 59.8646H248.206L246.955 63.2788H249.341Z" fill="#111110"/>
<path d="M260.32 66.1161C258.649 64.1405 256.915 62.0709 255.203 60.054V64.6991C255.203 64.9199 255.246 65.0978 255.266 65.2659C255.319 65.6449 255.676 65.7915 256.37 65.8443V66.1178H253.796V65.8443C254.3 65.7915 254.648 65.6449 254.699 65.2659C254.721 65.0978 254.762 64.9199 254.762 64.6991V59.7509C254.467 59.3719 254.142 59.0357 253.542 59.0357V58.7622H255.456C257.021 60.6637 258.651 62.5965 260.216 64.4997H260.237V60.1809C260.237 59.9601 260.196 59.7822 260.175 59.6141C260.122 59.2351 259.764 59.0885 259.071 59.0357V58.7622H261.645V59.0357C261.15 59.0885 260.793 59.2351 260.742 59.6141C260.72 59.7822 260.679 59.9601 260.679 60.1809V66.1178H260.321L260.32 66.1161Z" fill="#111110"/>
<path d="M265.594 64.803C265.594 65.7801 265.553 65.7274 266.497 65.8427V66.1163H263.671V65.8427C264.617 65.7274 264.574 65.7801 264.574 64.803V60.0756C264.574 59.0985 264.617 59.1512 263.671 59.0359V58.7623H266.497V59.0359C265.551 59.1512 265.594 59.0985 265.594 60.0756V64.803Z" fill="#111110"/>
<path d="M270.396 63.6775L269.913 65.0847C269.777 65.495 269.976 65.841 270.439 65.841V66.1145H268.526V65.841C268.809 65.841 269.114 65.6631 269.282 65.3154C269.734 64.391 270.963 60.9554 271.836 58.6321H272.424C273.14 60.7445 274.211 63.9807 274.568 64.915C274.799 65.5032 274.967 65.8394 275.42 65.8394V66.1129H272.972V65.8394C273.634 65.8394 273.697 65.4933 273.528 65.0303L273.077 63.6742H270.398L270.396 63.6775ZM272.939 63.2788L271.825 59.8646H271.803L270.553 63.2788H272.939Z" fill="#111110"/>
<path d="M276.466 49.6453H69.4678V50.2286H276.466V49.6453Z" fill="#111110"/>
</svg>
